<?xml version="1.0" encoding="utf-8"?>
<!-- Generator: Adobe Illustrator 19.0.0, SVG Export Plug-In . SVG Version: 6.00 Build 0)  -->
<svg version="1.1" id="Layer_3" xmlns="http://www.w3.org/2000/svg" xmlns:xlink="http://www.w3.org/1999/xlink" x="0px" y="0px"
	 viewBox="0 0 640 640" style="enable-background:new 0 0 640 640;" xml:space="preserve">
<style type="text/css">
	.st0{fill:#4B351D;}
</style>
<path class="st0" d="M323.4,235.5c-4.6-43.4,22.9-76.1,26.9-120.2c4-44.1,8.9-88.9,16.9-90.5c3.7,1,7.8,19.9,13.7,31.9
	c3.5-12-8.4-39.7-1.5-49.4c2.9-0.5,13.7,24.3,17.3,36.8c1.7-10.2-3.7-44.1,4.9-44.1c2.6,0,19.7,41.5,21,61.1
	c3.5-19.4-2.7-45,4.8-50.2c6,5.2,19.3,64.3,18.5,85.3c1,0,4.1-24,13.9-25.7c4.4,2.4-3.4,52.3-9.5,76.1c-0.3,0-0.2,0-0.5-0.1
	c-4.8-31.2-13.9-38.6-37.5-26.2c-11.7,6.2-21,5.5-28.4-6.5c-2.3-3.7-5.4-10.4-8.9-10.9c-3.6-0.5-13.1,16.7-15.8,25.6
	c-6.6,22-12.9,44.4-16,67.1c-3.7,27.4-3.7,55.4-5.6,83.1c-0.4,5.7-1.8,15.1-3.2,16c-1.4,0.9-5.8,0.4-5.9-0.1
	C326.8,274.9,325.5,255.3,323.4,235.5z M474.1,336.3c-1.4-12.9-9.8-20.5-20.3-26.4c0,0-12-8-12-7.9c0,0.1,4.9,3.5,1.2,10.2
	c-2.7,4.8-11.9,7-14.5,7.5l0,0c-15.2,2.4-28.7,14.6-44,16.2c-3.2,0.3-6.5,1.4-9.6,1c-27.9-3.9-55.8-8.1-83.7-12.3
	c-10.3-1.6-20.8-2.9-30.9-5.6c-5.2-1.4-15.3-3.1-15.2-9c0.1-5.9,14.2-4.2,18-9.6c3.2-4.7-27.4-15.9-55.6-25.8
	c-5.5-2.4-10.7-4.6-14.9-6.2c-1.9-0.7-4.9-1-6.1,0c-3.4,2.9-6.5,6.5-9.2,10.2c-2.3,3-3.3,7.4-6,9.8c-4.7,4.3-5.7,6.6-3.8,13.1
	c0.6,2.2,0.8,5.8-0.4,7.2c-2.7,3.3-1.1,5.3,0.9,7c1.9,1.6,4.4,2.3,6.6,3.5c1.8,1,4.2,2.1,1.9,4.5c-4.1,4.4-5.4,8.2-2.9,14.7
	c3,7.9,9.5,12.7,17.7,11.3c2.6-0.4,8.4-1.9,8.9-2c24.7-7.2,50-9.4,56.7-7.7c7.2,1.8,13.7,7.7,22.8,11.2
	c21.8,8.4,26.2,11.7,36.9,11.3c-0.6,21.3-0.7,41.3-2,61.1c-1.6,23.9,6.4,44.6,18.5,64.4c0.9,1.5,2,4.1,2.5,5.8
	c6.1,25,10.1,50.7,18.8,74.7c5.9,16.2,5.2,31.4,0.5,47.8c7.9,5.7,15.5-6.6,20.6-17.3c0,0-10.4,36.2,1,39.9
	c6.3-8,11.8-25.8,17.3-31.7c0,0-0.5,33.7,6.6,32.7c4.4-11,10.5-19.8,17-43.3c2.4,8.7,1.8,28.1,8.4,25.5c3.2-9.2,12.5-32.1,14.1-59.9
	c2.3,4.9,0.6,15.8,5,18.1c3.1-2.8,9.1-19.3,5.9-36.1c-9.2-48.4-18.8-96.8-28.3-145.2c-0.5-2.6-1.1-5.1-1.5-7.7
	c-4.8-32.2-4.2-33.1,26.1-44c1-0.4,2-0.8,3-1.2c2.2-0.1,4.4-0.3,6.5-0.9c6.3-1.7,10,0.5,11.9,6.5C473.4,348.7,475,344.4,474.1,336.3
	z"/>
</svg>
