<?xml version="1.0" encoding="utf-8"?>
<!-- Generator: Adobe Illustrator 19.0.0, SVG Export Plug-In . SVG Version: 6.00 Build 0)  -->
<svg version="1.1" id="Layer_1" xmlns="http://www.w3.org/2000/svg" xmlns:xlink="http://www.w3.org/1999/xlink" x="0px" y="0px"
	 viewBox="0 0 228 56" style="enable-background:new 0 0 228 56;" xml:space="preserve">
<style type="text/css">
	.st0{fill:#F68821;}
</style>
<path class="st0" d="M222,52.4c0.8-1.5,1.1-3.3,1.4-5c0.8-5,1.4-10.1,2.2-15.1c0.2-1.2,1-2.3,1.3-3.6c0.4-1.6,0.7-3.3,1-5
	c0.1-0.7,0.2-1.3,0.2-2c-0.3-2.3-0.8-4.6-0.9-6.9c-0.1-2.6-0.7-5-2.6-7.2c-0.9-1-1.6-2.8-1.9-5.3c-0.2-1.5-40-3-49.4-1.9
	C170.2,0.8,47.7-1.1,5.8,1.3C1.3,1.6,2.3,3.8,0,4.7C0,9,0,13.3,0,17.6c0,0.6,0.1,1.2,0.2,1.8c0.2,1.8,0.6,3.6,0.6,5.4
	c0.1,2.4-0.3,4.9-0.2,7.3C1,37,1.5,42,1.9,47C2,48.1,2,49.3,2.4,50.3c1.2,3.7,2,3.9,5.4,4.1c4.1,0.3,8.2,0.4,12.3,0.9
	c3.9,0.5,8.1,0.1,12.1-0.4c6-0.7,152.2-1.1,158.2-0.2c5,0.8,9.9,1.5,15,1.1c4.6-0.4,9.1-0.9,13.6-1.6
	C220.1,54.1,221.5,53.3,222,52.4z"/>
</svg>
