<?xml version="1.0" encoding="utf-8"?>
<!-- Generator: Adobe Illustrator 19.0.0, SVG Export Plug-In . SVG Version: 6.00 Build 0)  -->
<svg version="1.1" id="Layer_1" xmlns="http://www.w3.org/2000/svg" xmlns:xlink="http://www.w3.org/1999/xlink" x="0px" y="0px"
	 viewBox="0 0 469 352" style="enable-background:new 0 0 469 352;" xml:space="preserve">
<style type="text/css">
	.st0{fill:#F68821;}
</style>
<path class="st0" d="M13,326.1c-1.7-9.6-2.4-20.7-2.9-31.3c-1.7-31.3-2.9-62.7-4.6-93.9c-0.4-7.6-2.1-14.6-2.8-22.2
	c-0.9-10.2-1.5-20.7-2.1-31c-0.3-4.1-0.5-8.3-0.4-12.4c0.6-14.3,1.6-28.6,1.9-43C2.3,76,3.3,61,7.5,47.3c1.9-6.2,3.4-17.3,4.2-33.2
	C12.1,4.5,77.5-4.6,97.5,2.5c6.6,2.3,269.2-9.3,359.1,5.8c9.7,1.6,7.5,15.5,12.4,20.8c-0.1,26.7,0,53.5-0.1,80.2
	c0,3.7-0.2,7.3-0.4,11c-0.5,11.2-1.3,22.4-1.4,33.6c-0.1,15.2,0.7,30.4,0.4,45.6c-0.6,31.2-1.7,62.3-2.7,93.5
	c-0.2,6.8-0.3,13.8-1,20.3c-2.7,23.1-4.3,24.3-11.6,25.8c-8.8,1.8-17.6,2.3-26.4,5.9c-8.4,3.3-17.3,0.3-25.9-2.6
	c-12.8-4.4-263.8,4.8-290.9,8.2c-27.1,3.5-49.6,0-60.4-2.4c-9.8-2.2-19.5-5.6-29.2-10C17,337,13.9,331.6,13,326.1z"/>
</svg>
