<?xml version="1.0" encoding="utf-8"?>
<!-- Generator: Adobe Illustrator 19.0.0, SVG Export Plug-In . SVG Version: 6.00 Build 0)  -->
<svg version="1.1" id="Layer_1" xmlns="http://www.w3.org/2000/svg" xmlns:xlink="http://www.w3.org/1999/xlink" x="0px" y="0px"
	 viewBox="0 0 1511.4 499" style="enable-background:new 0 0 1511.4 499;" xml:space="preserve">
<style type="text/css">
	.st0{fill:#DCE7F2;}
</style>
<path class="st0" d="M1454.5,475.6c7-9.9,9.5-21.3,11.8-32.1c6.7-32.1-3.4-64.4,3.5-96.4c1.7-7.7,8.6-15,11.4-22.8
	c3.8-10.5,20.1-9.6,22.7-20.3c1-4.2,8.1-20.1,7.5-24.3c-2.3-14.7-6.5-29.4-7.6-44.1c-7-89.5,0.5-75.4-4.6-100.1
	c-1.8-9,2.8-17.3-2.7-26.1c-4.5-7.2-16.6-13.4-19.6-24.4c-3-11-7.8-25.9-11-35.9c-1.4-4.7-1.3-49.1-1.3-49.1L34.2,68.7
	c0,0,1.3,96.7-5.3,127.4c-6.7,30.6-13.1,64.5-12.5,68.3c1.9,11.5-14.9,23-14.5,34.5c0.5,15.6-2.9,31.3-1.6,46.8
	c2.6,32.1,22.4,64,26.2,96c0.8,7,1.1,14.2,4.1,20.9c10.7,23.7,17.3,24.9,46.9,26.4c35.6,1.9,71.2,2.4,106.8,6
	c33.8,3.4,70,0.3,104.5-2.6c51.6-4.5,839.9-6.9,891.6-1c42.9,4.9,86.1,9.5,129.9,7c39.5-2.3,78.8-5.8,117.8-10.3
	C1438,486.8,1450.5,481.2,1454.5,475.6z"/>
</svg>
