<?xml version="1.0" encoding="utf-8"?>
<!-- Generator: Adobe Illustrator 19.0.0, SVG Export Plug-In . SVG Version: 6.00 Build 0)  -->
<svg version="1.1" id="Layer_1" preserveAspectRatio="none" xmlns="http://www.w3.org/2000/svg" xmlns:xlink="http://www.w3.org/1999/xlink" x="0px" y="0px"
	 viewBox="0 0 1557.1 602" style="enable-background:new 0 0 1557.1 602;" xml:space="preserve">
<style type="text/css">
	.st0{fill:#D7DADB;}
</style>
<path class="st0" d="M26,0l1531,1.4c0,0,0.8,70.2-5,132.6c-4.1,44.1-17.6,84.1-17.3,93.6c0.8,22.9-3.2,54.6-7.9,84.1
	c-4.7,29.5,1.6-26.4-1.7,16.2c-3.5,42.6-4.1,274.2-4.1,274.2L38,599.2c0,0,0.9-27.8-4.9-79.7c-5.7-50.2-25.9-90.7-31-103.3
	C-3,403.7,2.7,403.7,6,382.7c3.1-21,6.5-78.1,3.7-110.8c-2.8-33-12-87.6-9.2-114.6C2.1,140.6,25.2,98.4,25.9,60
	C26.3,36.3,27.2,14,26,0z"/>
</svg>
