<?xml version="1.0" encoding="utf-8"?>
<!-- Generator: Adobe Illustrator 19.0.0, SVG Export Plug-In . SVG Version: 6.00 Build 0)  -->
<svg version="1.1" id="Layer_1" preserveAspectRatio="none" xmlns="http://www.w3.org/2000/svg" xmlns:xlink="http://www.w3.org/1999/xlink" x="0px" y="0px"
	 viewBox="0 0 1488.3 908" style="enable-background:new 0 0 1488.3 908;" xml:space="preserve">
<style type="text/css">
	.st0{fill:#AA9131;}
</style>
<path class="st0" d="M2.3,178.2L1488.3,0c0,0-0.8,182.5-0.8,219.9c0,48-19.1,106.6-22.1,164c-6.3,119.6,3.1,193.6,3.1,193.6
	s-20.8,84-9,128.5c11.8,44.3,3.5,132.3,3.5,141.3c0,9-0.6,60.7-0.6,60.7H14c0,0,1.7-76.3-0.5-96.3c-2.2-20,2.3-45.5,8-71.2
	c5.5-25.5-0.8-60.1-7.7-71.6C6.9,657,2.6,654.4,7.1,641.9c4.5-12.5-6.1-41.5-6.9-89.3C-0.7,504.6,2.3,178.2,2.3,178.2z"/>
</svg>
