<?xml version="1.0" encoding="utf-8"?>
<!-- Generator: Adobe Illustrator 19.0.0, SVG Export Plug-In . SVG Version: 6.00 Build 0)  -->
<svg version="1.1" id="Layer_1" xmlns="http://www.w3.org/2000/svg" xmlns:xlink="http://www.w3.org/1999/xlink" x="0px" y="0px"
	 viewBox="0 0 1560.1 704" style="enable-background:new 0 0 1560.1 704;" xml:space="preserve">
<style type="text/css">
	.st0{fill-rule:evenodd;clip-rule:evenodd;}
</style>
<path class="st0" d="M1541.5,299.1c-1.7,5-7.4,10.1-12,15.1c-15.8,17.4-17.4,33.5-6.1,49.5c5.1,7.2,3.1,16.2,2,24.5
	c-1.4,10-6.5,20.3-7.6,30.3c-0.7,6.7,3.6,13.1,4.3,19.7c3.3,28.5,19.3,37.7,27.2,65.5c7.5,26.5-0.5,53.4-8.2,80.6
	c-1,3.6-0.3,7.1-0.8,10.7c0,10.9-0.2,109-0.2,109H0.1v-28c0,0-0.2-15.4,0-25c0.1-5.5,2.4-17.5,4-23c2.3-7.9,6.5-13.4,13.5-20.5
	c24.3-24.7,49.7-35,94.3-54.3c44.7-19.3,83.5-33.2,125.7-53.7c21.4-10.4,43.4-20.7,67.1-30.2c50.8-20.4,100.9-40.9,138.5-66.5
	c8.2-5.6,19.4-10.3,28.8-15.6c16.2-9.2,48.6-28.7,41.8-25.3c25.7-12.9,50.5-26.2,75.8-39.4c3.4-1.8,7.6-3.2,11.3-4.9
	c23.8-10.5,47.7-21,71.4-31.6c18.7-8.3,37.3-16.7,55.5-25.2c33.4-15.5,67.3-30.8,99.5-46.8c46-22.8,91-45.9,135.6-69.2
	c17.6-9.2,40.2-16.9,49.1-29.1c1.4-1.9,6.6-3.8,11.1-4.8c30.8-6.7,50.1-18.6,72.2-29.4c13.3-6.5,31.4-11.2,46.4-17.1
	c15.8-6.3,30.7-12.9,45.6-19.6c16.7-7.5,33.1-15.1,49.2-22.9c5.5-2.6,35-14.1,54.7-19.1c16-4,71-2.3,86-2c28.4,0.5,61.2-6.2,91,9
	c16.9,8.6,14,37,17,57c3,20-5,42.5,17.7,76.4c9.4,14.1,23.3,27.5,35.1,41.3c1.4,1.6,2.7,3.3,3.2,5c6,18.1,11.8,36.2,17.6,54.3
	c0.7,2.3,2.1,4.8,0.9,6.9C1546.5,272.4,1549.4,276.2,1541.5,299.1z"/>
</svg>
