<?xml version="1.0" encoding="utf-8"?>
<!-- Generator: Adobe Illustrator 19.2.1, SVG Export Plug-In . SVG Version: 6.00 Build 0)  -->
<svg version="1.1" id="Layer_1" preserveAspectRatio="none" xmlns="http://www.w3.org/2000/svg" xmlns:xlink="http://www.w3.org/1999/xlink" x="0px" y="0px"
	 viewBox="0 0 269 318" style="enable-background:new 0 0 269 318;" xml:space="preserve">
<style type="text/css">
	.st0{fill:#87741C;}
</style>
<path class="st0" d="M19.8,8.4c7.3-1.1,15.8-1.5,23.9-1.9c23.9-1.1,47.9-1.9,71.8-3c5.8-0.3,11.2-1.4,16.9-1.8
	c7.8-0.6,15.8-1,23.7-1.4c3.1-0.2,6.4-0.3,9.5-0.2c11,0.4,21.9,1,32.8,1.2c12.5,0.2,24,0.9,34.4,3.6c4.7,1.2,13.3,2.2,25.4,2.7
	c7.3,0.3,14.3,55.8,8.9,68.8c-1.8,4.3,7.1,175.1-4.4,233.5c-1.2,6.3-11.8,4.9-15.9,8.1c-20.4-0.1-40.9,0-61.3,0
	c-2.8,0-5.6-0.2-8.4-0.3c-8.6-0.3-17.1-0.8-25.7-0.9c-11.6-0.1-23.3,0.5-34.8,0.3c-23.8-0.4-47.6-1.1-71.5-1.8
	c-5.2-0.1-10.6-0.2-15.5-0.7c-17.7-1.7-18.5-2.8-19.7-7.5c-1.4-5.7-1.8-11.5-4.5-17.2c-2.5-5.4-0.3-11.3,2-16.8
	c3.3-8.3-3.6-171.6-6.3-189.2c-2.7-17.6,0-45.2,1.9-52.3c1.7-6.4,4.3-12.7,7.6-19C11.4,11.1,15.6,9.1,19.8,8.4z"/>
</svg>
