<?xml version="1.0" encoding="utf-8"?>
<!-- Generator: Adobe Illustrator 19.0.0, SVG Export Plug-In . SVG Version: 6.00 Build 0)  -->
<svg version="1.1" id="Layer_1" xmlns="http://www.w3.org/2000/svg" xmlns:xlink="http://www.w3.org/1999/xlink" x="0px" y="0px"
	 viewBox="0 0 1486 568.1" style="enable-background:new 0 0 1486 568.1;" xml:space="preserve">
<style type="text/css">
	.st0{fill:#F68821;}
</style>
<path class="st0" d="M105,5.3c18.6,0-0.7,0,27.8,0c19.3,0,73,12.9,96.2,12.9c54.8,0,87.2-12.9,157.9-12.9
	c110.4,0,206.4,16.1,331,16.1c47.8,0,123.2-3.2,170-3.2c94.9,0,186.2-15.5,266.9-17.2c108-2.3,196.9-0.2,249.8,1.8
	c9.4,0.4,17.4-6.8,24.7,1c7.3,7.8,41.5-19.2,34.2,50.5c9.9,16.9,38.5,34.9,11.1,66c-27.2,31-33.3,52.8-22.6,78.4
	c10.9,25.8,29.2,66.6,31.7,77.7c2.5,11.3,4.1,25.2-3.1,52.6c-7.2,27.5-0.5,56.4-3.8,67.2c-3.3,10.7-0.7,36.2-16,48.2
	c-15.2,11.9-9.4,105.1-9.4,121.5C1409.8,568.6,23,568,23,568s-0.4-52.5-5-73.8C13.5,473,4.1,464.7,2.8,460
	c-1.2-4.7-5.3-11.7-0.6-18.4c4.7-6.8,32.3-30.9,33.1-51.5c0.8-20.4-3.1-54-0.6-59.9c2.5-5.9,1.6-21.8-1.4-36
	c-2.9-14.1-8.6-41.4-4.9-53c3.7-11.7,6.2-20.9,3.7-34.2c-2.3-13.3-13.2-55.6-14-120.4c-0.1-16.8-2.7-30.8-0.2-41.3
	C25.1,15.4,47.2,5.3,105,5.3z"/>
</svg>
