<?xml version="1.0" encoding="utf-8"?>
<!-- Generator: Adobe Illustrator 19.0.0, SVG Export Plug-In . SVG Version: 6.00 Build 0)  -->
<svg version="1.1" id="Layer_1" xmlns="http://www.w3.org/2000/svg" xmlns:xlink="http://www.w3.org/1999/xlink" x="0px" y="0px"
	 viewBox="0 0 715 404" preserveAspectRatio="none" style="enable-background:new 0 0 715 404;" xml:space="preserve">
<style type="text/css">
	.st0{fill:#F5E98A;}
</style>
<path class="st0" d="M18.8,374.3c-2.5-11-3.4-23.7-4.2-35.9c-2.4-35.9-4.3-71.9-6.7-107.8c-0.6-8.7-3.1-16.8-4.1-25.4
	c-1.4-11.7-2.2-23.7-3.1-35.6c-0.4-4.7-0.8-9.6-0.5-14.2c0.8-16.5,2.3-32.8,2.7-49.3c0.5-18.8,2-36,8-51.7c2.7-7.1,5-19.9,6-38.1
	c0.6-11,124.3-21.4,153.3-13.3C179.7,5.6,566.7-7.7,697,9.5c14,1.9,10.8,17.8,18,23.9c-0.1,30.7,0,61.4-0.1,92.1
	c0,4.2-0.4,8.4-0.6,12.6c-0.7,12.8-1.8,25.7-2,38.5c-0.2,17.4,1,34.9,0.6,52.3c-0.9,35.8-2.5,71.5-3.9,107.3
	c-0.3,7.8-0.4,15.9-1.5,23.3c-3.8,26.5-6.2,27.8-16.8,29.6c-12.8,2.1-25.5,2.7-38.3,6.7c-12.1,3.8-25.1,0.4-37.5-3
	c-18.5-5-388.8,5.5-428,9.4c-39.2,4-100.8,0-116.5-2.8c-14.2-2.6-28.3-6.5-42.3-11.4C24.7,386.8,20.2,380.6,18.8,374.3z"/>
</svg>
