<?xml version="1.0" encoding="utf-8"?>
<!-- Generator: Adobe Illustrator 19.0.0, SVG Export Plug-In . SVG Version: 6.00 Build 0)  -->
<svg version="1.1" id="Layer_1" preserveAspectRatio="none" xmlns="http://www.w3.org/2000/svg" xmlns:xlink="http://www.w3.org/1999/xlink" x="0px" y="0px"
	 viewBox="0 0 508 626" style="enable-background:new 0 0 508 626;" xml:space="preserve">
<style type="text/css">
	.st0{fill:#DCE9F7;}
</style>
<path class="st0" d="M283.4,402.7c3.2,1.9,6.5,1.9,8.6,4.3c0.2,0.2,0.9,0,1.3-0.2c0.3-0.2,0.3-0.5,0.1-0.9c-1.2-2.7,0.1-5,3.1-5.3
	c1.8-0.2,3.7,0,6,0c-2.3,2.6-1.4,3.8,1.3,4.4c0.6,0.1,1.3,1,1.6,1.7c0.8,2.1,0.9,4.5,4,5c1.1,0.2,0.3,4.2-1.4,4.9
	c-3,1.2-3.3,4-4.1,6.3c-0.4,1.2-0.8,2.4-1,3.6c-0.4,2.3-1.7,3.5-3.9,4.1c-3,0.9-4,3.8-5.8,6c-0.2,0.2-0.2,0.7-0.1,0.8
	c1.5,2.1,0,4-0.1,6c-0.3,3.3-3.3,3.1-4.5,5c-0.4,0.6-1.3-0.6-1.9-1c-0.8-0.6,0.1-0.9,0.4-1.3c2.9-4.6,2.9-4.5-2-6.7
	c-1.4-0.6-2.8-1.3-2.7-3.4c0.2-1.9-1.2-3.1-3-3.4c-4.4-0.6-7.9-2.5-11.1-5.6c-3.5-3.4-4.2-3.1-8.3-0.8c-3.7,2.2-7.7,2.6-11.9,1.8
	c-2.3-0.4-4.1-0.3-4,2.8c0,0.7-0.7,1.4-1.5,1.6c-1,0.3-1-0.7-1.4-1.2c-0.6-0.6-1.6-1.1-1.3-2.1c1.7-4.4-0.9-7.9-2.6-11.5
	c-0.1-0.2-0.1-0.4-0.2-0.6c-5.4-5.2-5.5-13.5-11-18.8c-1.8-1.7-2.9-4.2-4-6.4c-2-4-0.6-7.9,0.4-11.8c0.3-1,0.7-2.1,0.7-3.2
	c0.2-2.4,0.8-5-2.7-5.9c-4-1.1-5.5-0.5-7.5,2.9c-1.6,2.7-3.2,5.6-6.3,7c-0.4,0.2-0.6,0.5-0.7,0.9c-1.8,5.9-7.4,6-11.8,8.1
	c-4,1.9-8.2,0.7-12,1.9c-4,1.2-6.9,1.4-9.7-2c-2-2.5-5-1.7-7.9-1.8c1.2,2.6,3.9,3.7,5.2,5.9c1.6,2.7,0.9,5-1.8,6.1
	c-1,0.4-1.7,0.3-2.3-0.4c-2.5-3.1-5.7-3.9-9.4-2.6c-3.3,1.1-6.7,1.9-9,4.9c-1.3,1.7-0.9,2.6,0.9,3.3c0.8,0.3,1.9,0.5,2,1.5
	c0.1,1.3-1.3,1.1-2,1.7c-3.8,3.1-7.5,2.2-11.5,0.1c-2.2-1.1-4.9-2.5-6.7,1.1c-0.6,1.1-1.7,0.3-2.6,0.1c-1.4-0.3-3-1-3,1.7
	c0,1.3-1.4,1.7-2,2.5c-0.8-0.5-0.5-1-0.5-1.5c0.1-2.1-1.5-3.1-3.1-3.8c-1.7-0.7-2.3,1-3.1,2.1c-1,1.4-1.6,3.7-3.7,3.2
	c-2.1-0.5-3.9-1.8-4.1-4.5c-0.1-2.1-1.5-3.5-3-4.4c-4.2-2.6-5.5-6.8-7.2-11c-1.6-4-1.9-7.9-0.6-12c0.3-1.2,0.4-2.7,0-3.8
	c-1.2-3.2-1.2-6,1-8.8c1.2-1.5,0.1-3-0.9-3.9c-1.8-1.5-3.5-3.4-6.2-3.5c-0.9-0.1-2.5-0.2-1.6-2.7c0.5-1.4,1.8-4.1-0.5-6.2
	c-1.5-1.4-0.3-3.3,1.8-3.4c5-0.3,10-0.9,15.1-0.7c2.8,0.1,3.8-2,2.8-4.8c-0.3-0.7-1.1-1.4-0.2-2.1c0.5-0.4,1.1-0.1,1.7,0.1
	c1.2,0.4,2.8,2.2,3.7,0.2c0.9-2.1-0.5-4-2.3-5.2c-1.8-1.2-2.2-2.9-0.4-4.2c1.4-1,1.4-2.1,1.2-3.6c-0.2-1.7-1.5-1.9-2.8-2.1
	c-2-0.3-4.1-0.2-5.4-2.3c-0.7-1.1-1.1-2.1,0.4-2.5c1.8-0.6,1.3-1.4,0.6-2.6c-0.8-1.4-1.5-2.9-2.3-4.4c-1-2-2.1-4-1.1-6.5
	c0.4-1.1-0.3-2.2-1.6-2.7c-2.3-0.8-2.5-2-0.7-3.5c0.1-0.1,0.4-0.3,0.4-0.4c0-3.2,0.2-6.3-0.2-9.5c-0.2-1.7-2.1-2.6-3.5-3.7
	c-0.5-0.3-1.1-0.8-1.6-0.7c-1.3,0.1-3-1.2-3.9,0c-0.7,1,1.1,1.8,1.6,2.8c1.1,2,0.5,4.2-0.8,5.5c-1.3,1.3-3.7,1-5.2,0.1
	c-3.4-2.1-6.3-1.3-9.4,0.4c-1.7,0.9-2.1,2.3-1.8,3.9c0.3,1.7,1.8,1.6,3.1,1.5c2.6-0.2,3.8,0.6,4.1,3.5c0.4,3.7,5.2,5.2,8.1,2.8
	c0.4-0.3,0.6-1.1,1.4-0.7c1,0.4,3.2,5.7,2.6,6.6c-0.8,1.1-1.4,2.3-1.9,3.6c-0.4,1.3-1.4,0.7-2,0c-0.6-0.6-1.2-1.2-2-0.4
	c-0.8,0.8-0.4,1.5,0.1,2.3c1.1,1.6,2.6,2.3,4.3,2.8c1.1,0.3,1.9,0.7,1.7,2c-0.6,4.2,2,6.7,4.6,9.3c0.4,0.4,0.9,0.8,1.2,1.2
	c0.8,0.9,2.7,1.5,1.5,3.2c-1.2,1.7-2.9,1.2-4.5,0.5c-0.5-0.2-0.9-0.4-1.1-0.9c-2.5-6.8-10.8-6.9-14.5-12.4c-0.4-0.6-1.7-0.9-2.7-0.8
	c-2,0.2-4.1-0.1-5.8-0.8c-2.6-1.1-5.1,0.2-7.6-0.3c-0.2,0-0.7,0.4-0.8,0.7c-0.2,0.4,0.1,0.7,0.5,0.9c1.6,0.8,2.7,2.2,3.6,3.7
	c1.5,2.5,3.4,3.7,6.5,3.5c3.7-0.3,7.6,5,6.8,8.5c-0.3,1.4-1.3,1.1-2.1,0.9c-1.6-0.3-3.2-0.8-4.8-1.2c-0.7-0.2-1.6-0.6-2,0.5
	c-0.2,0.8-0.1,1.4,0.7,2c3.1,2.2,6,4.6,9,6.8c0.1,0.1,0.4,0.1,0.5,0.2c4.8,4,4.8,4.9,0.1,9c-3.1,2.8-3.9,6.8-1.7,10.2
	c-1.5-0.3-2.8-0.5-4.1-0.7c-1.4-0.2-2.8-0.1-3.5,1.5c-0.7,1.6-1.9,1.1-3,0.9c-1.2-0.3-1.9-0.9-1.7-2.3c0-0.2,0-0.4,0-0.6
	c-0.2-1.2,0.7-3-0.6-3.3c-1-0.2-2.1,1.4-2.9,2.5c-1.9,2.9-1.9,6.1-1.7,9.4c0,0.4,0.3,0.7,0.4,1.1c0.3,0.7,2,0.4,1.3,1.8
	c-0.6,1.1-1.7,0.7-2.6,0.7c-1.5,0.1-2.9-0.2-4.2-1.1c-1.4-1.1-3-1.5-4.9-1.4c-2.4,0.1-4.4-0.4-4.4-3.7c0-2.2-2.2-3.3-3.8-4.1
	c-1.7-0.8-3.5-2.3-5.8-1.4c-1.2,0.5-1.5-0.4-1.3-1.5c0.2-0.8,0.1-1.6,0.4-2.3c1-2.9,0.5-5-2.3-6.6c-1.7-0.9-1.6-2.9-0.9-4.5
	c1-2.2,0.8-4.2-0.4-6.2c-0.6-1-0.9-1.9-0.6-3.1c0.2-0.8,0.3-1.8-0.4-2.2c-3.8-2.4-1.2-5,0.1-7c1.2-1.7,0.4-3.9,2.1-5.4
	c0.7-0.7-1.1-1.9-1.8-2.6c-1.1-1.3-2-2.1,0.3-2.9c0.3-0.1,0.8-0.7,0.8-0.8c-2.1-2.3,1.7-4.3,0.3-6.5c-0.7-1.1-0.9-2.4-0.7-3.7
	c0.1-1.3,0.3-2.6,2.1-1.3c0.3,0.2,0.8,0.2,1.1,0.1c1.4-0.7,2.6-6.8,1.6-8.2c-0.8-1.1-1.6-2.2-2.4-3.3c-1.2-1.7-0.8-3.2,0.4-4.8
	c1.2-1.6,2.5-1.4,4.1-0.7c1.6,0.7,5.1-0.7,5.5-2.3c0.5-2.2,0.2-4.1-2.4-4.9c-3.9-1.3-5.1-4-4.1-8c0.6-2.3,1.5-4.5,1.3-6.9
	c-0.1-0.9,0.1-1.9-0.6-2.5c-2.7-2.6-2.4-5.6-1.1-8.7c0.6-1.3,0.5-2.3,0-3.6c-0.4-1.1-0.5-2.5,0.3-3.7c1.5-2.3,1-3.3-1.7-4
	c-2.6-0.7-3-1.5-1.5-3.8c1-1.6,1.8-3.2,2.9-4.8c1.5-2.2,3.3-3.9,6.1-4.6c4.8-1.1,9.5-7.2,9.6-11.9c0.1-2.2-2-2.8-3.3-4
	c0.9-0.9,1.8-0.6,2.8-0.5c1.3,0.1,2.9,0.9,2.5-1.7c-0.2-1.2,1.2-0.7,1.8-0.8c3.8-0.1,7.5-0.5,11.2-1c2.3-0.3,4.3-1.1,5.6-3.2
	c1.1-1.9,2.9-2.6,5.1-3c3.6-0.7,7.3-0.9,10.2-3.9c1-1.1,3.4-2.1,5.1-0.2c0.6,0.6,1.2,0.6,1.5,0.1c1-1.7,2.6-1.2,4-1.2
	c2.9,0.1,5.7-0.3,8.5-0.8c1.6-0.3,2.7,0.2,3.3,1.7c2.7,6.4,8.1,9.1,14.5,9.6c2.7,0.2,4.3,1.4,5.3,3.4c1.4,2.5,3.1,3.9,6.2,4.1
	c2.4,0.2,4.5,1.1,6.6,2.9c4.4,4,9.8,6.4,15.1,8.8c1.4,0.7,3.9,0.5,4.7-2.2c0.4-1.3,0.6-2.8,2.8-2.8c2,0.1,2.9,0.3,3,2.7
	c0.1,5.6,2.4,8,8.1,8.8c1.8,0.3,5,4.7,4.6,6.3c-0.2,0.7-0.8,0.8-1.4,0.9c-1.4,0.3-2.9,0.5-4.3,1c-1.7,0.6-2.7,1.8-2.5,3.8
	c0.2,2.1,1.9,1.5,2.9,1.4c2.9-0.4,4.8,0.5,5.6,3.5c0.5,1.9,1.8,3.4,3.9,4c1.7,0.5,2.8,1.8,3.4,3.4c0.7,1.8,1.9,2.2,3.7,1.9
	c5.2-0.9,8.9,3,7.8,8.2c-0.2,1-0.2,1.8,0.4,2.5c1.9,2,1.7,3.9,0.1,5.9c-1,1.2-1.7,2.6,0.3,3.9c1.7,1.1,0.5,2.1-0.7,2.9
	c-4.4,2.8-5,4.2-4,9.5c0.2,1,1.1,2.2-0.4,2.8c-1.2,0.5-2.5,0.1-3.4-0.9c-1.1-1.2-2.1-2.5-3.1-3.9c-1.4-1.8-2.7-3.9-5.1-4.2
	c-3.8-0.4-7.7-0.4-11.5,0.4c-1.2,0.2-0.9,1-0.4,1.8c1.2,1.9,2.2,3.9,3.5,5.7c1.6,2.4,1.7,4.4-0.9,6.2c-0.4,0.3-0.8,0.6-1.2,0.9
	c-1.6,1.1-3.4,2.1-1.1,4.3c0.4,0.4,1.2,1.8,0.4,2.6c-0.8,0.8-1.9,0.2-2.8-0.1c-4.9-1.6-7-0.7-9.1,3.8c0,0.1,0,0.2-0.1,0.3
	c-3.2,1.6-5.9,3.5-6.9,7.4c-0.2,0.9-3.3,1-4.3-0.4c-1.2-1.8-2.5-1-3.8-0.8c-0.7,0.1-1.6,0.4-1.6,1.5c0.1,1,0.9,0.8,1.5,1.1
	c1,0.4,1.7,0.8,2.1,2c0.9,2.5,3.2,3.6,5.8,4c2.8,0.4,5.3,0.6,7.6,3.2c2.4,2.8,6.6,2.9,10.3,2.2c1.3-0.3,2.1-0.1,2.7,1
	c0.8,1.5,2.2,1.6,3.5,1.1c1.5-0.6,0.5-1.5,0.2-2.4c-0.2-0.7,0.2-1.2,0.8-1.7c2.4-2.4,5-4.7,5.6-8.4c0.3-1.4,1.5-1.1,2.4-0.9
	c4.1,1,8.1,1.3,12.2,0c1.6-0.5,2.9,0.1,3.4,2.2c0.7,3.2,3.4,5.5,6.7,5.4c2,0,3.1,0.8,4.1,2.2c0.3,0.5,0.8,1.2,1.2,1.2
	c3.2,0.1,2.8,2.3,2.7,4.4c-0.1,2.1-0.1,4.2,0,6.2c0,1,0.5,1.9,1.7,2.1c1.2,0.1,1.9-0.1,1.8-1.5c-0.1-1,0.8-0.9,1.4-1.1
	c6.6-2.6,8-4.8,8-11.9c0-6.7,0.7-8.1,6.7-13.8c1.1,1.6-0.2,2.8-0.6,4.1c-0.3,1-1.1,2.1,0,2.6c1,0.5,2.1,1.5,3.5,0.5
	c1.3-0.9,2.7-1.8,4.2-2.5c2.5-1.1,4.8-0.9,7,1.1c-1.4,0.8-2-0.8-3.2-0.5c-2,0.6-2.9,2.7-1.7,4.7c0.9,1.6,1.4,2.8-0.3,4.3
	c-1.3,1.2-2.7,2.9-1.8,5c0.9,2,3.1,2.3,4.8,2.1c2.2-0.2,5.5,1.2,5.8-3c0-0.5,0.5-0.9,1.1-0.8c0.7,0.1,0.5,0.8,0.5,1.2
	c0,0.9,0.1,1.7-0.9,2.5c-3.1,2.9-6.1,5.3-10.8,4.5c-2.6-0.4-4.5,2.6-3.4,5.1c0.4,1,0.9,2.1,1.8,3c1.2,1.1,1.1,2.3,0.3,3.7
	c-1.2,1.9-2.4,4.1-0.9,6c1.4,1.8,3.7,2.4,6.3,1.7c2.6-0.7,5.4-0.7,7.7,1.6c1.3,1.3,4.4-0.5,4.5-2.4c0.1-1.2-0.1-2.3-0.7-3.4
	c-0.4-0.7-0.7-1.7,0.2-2c0.9-0.3,1.7-1.7,2.9-0.6c1.9,1.7,2.4,0.2,3-1.2c1.3-3.1,2.5-6.2,4.2-9c1.7-2.7,4.1-3,6.2-0.7
	c2.4,2.7,8.6,3.3,11.5,0.9c1.4-1.1,2.6-2.2,4.6-2.2c1.6,0.1,2.2-1.6,2.5-2.9c0.5-1.8,1.8-2.7,3.3-3.9c2.3,6.2,4.2,12.1,3.9,18.5
	c-0.1,1.6-0.5,2.4-2.1,1.4c-2.7-1.6-5.2,0-7.8,0.3c-2.6,0.3-5.1,1-6.3,3.9c-0.3,0.8-1.4,1.6-2.4,1.3c-2.3-0.5-3.3,0.6-4,3.1
	c-0.6-1.5-1.2-2.5-2.4-2c-1.1,0.4-1.1,1.5-1.2,2.5c-0.3,3.6,1.1,5.7,4.4,7.1c1.2,0.5,2.4,0.9,3.4,1.7c2.3,1.8,1.8,4,0.5,6
	c-1.3,1.9-0.9,3.4,0.8,4.5c1.2,0.8,1.3,1.5,0.5,2.6c-0.2,0.3-0.4,0.7-0.5,1.1C288.5,401.7,288.5,401.7,283.4,402.7z M83.5,243.6
	c0-7-1.8-8.4-8.8-6.9c-2.4,0.5-4.9,0.7-6.1-2.4c-0.5-1.2-1.6-2.1-2.6-3c-1.5-1.5-1.9-0.5-2.4,0.7c-1.3,3.3,0.1,6.4,3.9,8.3
	c3.9,2,8.2,3.4,10.9,7.2c0.4,0.6,1.1,0.8,1.8,0.8C83.2,248.6,83.5,248.2,83.5,243.6z M102.9,214.6c1.3,5.6,3.4,11.4,8,16
	c1.1,1.1,2.3,2.7,3.9,2.1c1.8-0.6,2-2.7,2.3-4.4c0.2-1.1-0.3-2.1-0.7-3.1c-2.1-5.5-6-9.5-10.7-12.7c-0.8-0.5-1.7-0.9-2.5-0.6
	C102.5,212.2,103.2,213.3,102.9,214.6z M94.8,243.7c0.4-0.3,2,0.4,1.8-0.1c-1-2.5,1.4-2,2.3-2.6c1.2-0.9,2.7-1.3,2.7-3.1
	c0-1.9-1.5-2.3-2.9-2.9c-1.3-0.5-2.3-1.4-2.8-2.7c-0.4-0.9-0.3-2.4-1.6-2.6c-1.5-0.2-1.6,1.4-2.4,2.3c-0.9,1-0.9,2-0.5,3.3
	c0.7,2.1,1,4.2,0.9,6.4C92.3,243.5,92.6,244.6,94.8,243.7z M165.3,379.9c-0.3-1.5,0.5-3.1-1.2-4.1c-2.3-1.4-4.6-2.8-6.9-4.2
	c-0.7-0.4-1.6-0.8-2.2-0.3c-0.8,0.6-0.5,1.6-0.1,2.5c1.3,2.7,3,5.2,4.7,7.7c1.4,2,3.2,2,4.7,1.8C166.2,383,164.8,380.9,165.3,379.9z
	 M289.6,365.6c-1.8-2.9-4.7-2.4-7-3.3c-2.8-1.1-2.7,1.6-3.2,2.9c-0.6,1.5-1.4,3.5,0.9,4.6c0.5,0.2,1,0.5,1.3,0.1
	C283.6,367.5,286.8,367.1,289.6,365.6z M55.6,302.7c0.6,0,1.1,0.1,1.6,0.5c0.5,0.4,1.2,0.9,1.8,0.3c0.8-0.8-0.2-1.6-0.5-2
	c-1.7-2.3-4.1-3.4-6.8-4.1c-1.8-0.4-2.5,1.5-3.6,2.3c-0.8,0.5,0.4,2,1.1,3c1,1.4,2.2,1.4,3.6,0.9C53.8,303.3,54.6,302.6,55.6,302.7z
	 M104.6,295.3c0,2.1,1.9,4.8,3.3,4.8c1.4,0,2.6-0.4,2.4-2.2c-0.1-1.5-2.9-4-4.4-4C104.6,293.8,104.7,294.6,104.6,295.3z M68.7,257.9
	c-0.8-1.9-2.7-1.8-4-1.9c-1.3-0.1-3,1.3-2.9,2.7c0.2,1.7,2.1,3,3.7,2.7C66.9,261.2,67.8,259.3,68.7,257.9z M95.7,270.7
	c1.1-0.1,2.2,0.3,2-1.2c-0.3-2.5-2.2-3.4-4.1-4c-1.7-0.6-1.6,1.6-1.5,2.2C92.2,269.9,94.2,270.3,95.7,270.7z M247.5,397.1
	c-0.2,0.2-0.4,0.3-0.6,0.5c2.9,4.5,5.8,9,8.7,13.5C254.5,405.5,251.2,401.2,247.5,397.1z M67.1,315c-1.1-2.1-2.5-3.2-4.4-3.7
	c-0.9-0.3-1.8-0.8-2.2,0.4c-0.3,1-0.5,2.1,0.9,2.7C63.1,315.3,64.9,315.3,67.1,315z M78,255.8c0.1,1.1,0.2,2.1,0.2,3.1
	c0.1,2.6,1.9,3.7,3.9,4.6c0.5,0.2,1.3,0.6,1.6,0c0.3-0.6,0-1.3-0.7-1.7c-1.7-0.9-2.9-2.2-3.1-4.3C79.8,256.7,79.2,255.9,78,255.8z
	 M136.8,321.9c0,1,0,1.9,0,2.9c0,0.9-0.3,2.1,0.9,2.6c0.2,0.1,0.7,0,0.7-0.1c0.5-0.9,1.3-1.9,0.8-3
	C138.8,323.3,138.7,321.8,136.8,321.9z M179.5,291.4c0,0.8-0.2,1.8,1.2,1.8c1,0,1.8-0.4,1.8-1.4c0-1.2-0.9-1.9-2-2.1
	C179.4,289.6,179.5,290.6,179.5,291.4z M69.3,301.1c0.6-0.4,2.1,0.4,1.9-1.1c-0.1-1.3-1.3-1.6-2.4-1.6c-0.9,0-2,0.5-2,1.3
	C66.8,301.3,68.3,300.9,69.3,301.1z M130.1,229.8c0.8-0.3,2.3,0.6,2.2-1c-0.1-1.5-1.9-0.7-2.9-1.2c-0.6-0.3-1.5,0.3-1.4,1.3
	C128.3,230.3,129.4,229.6,130.1,229.8z M262.9,422.2c-0.1-0.6-0.9-0.9-1.8-0.9c-0.6,0-1.6,0.1-1.5,0.9c0.1,1.1,1,1.5,2.1,1.4
	C262.4,423.7,263,423.7,262.9,422.2z M152.9,322.7c-1,1.5-3.2,0.7-3.5,2.7c0,0.1,0.6,0.4,0.9,0.3
	C151.9,325.6,153.1,325.1,152.9,322.7z M48.3,499.9c3.7-3.3,3.4-5.1-1.5-6.9c-1.7-0.6-2.3-2.3-3.5-3.3c-3.5-2.8-5.8-6.9-9.8-9.1
	c-1.3-0.7-3-1.5-1.8-3.7c0.1-0.2-0.1-0.8-0.3-1c-1.7-1.8-1.9-4.2-2.4-6.5c-0.4-2.3-0.2-4.7-1.5-6.8c-0.5-0.8,0-2.3,0.3-3.4
	c0.5-1.9-0.2-3.6-0.3-5.2c-0.1-2.2-3.2-3.8-1-6.3c0.6-0.6-0.2-1.6-0.6-2.4c-0.9-1.9-0.2-3.1,2-3.1c1.8,0,3.6,0,5.3,0.3
	c4.6,0.9,8.7-0.9,12.9-2.3c-0.2-0.7-0.7-0.6-0.9-0.5c-4.4,1.9-8.9,2-13.6,1.3c-1.4-0.2-2.9,0.2-4.4,0.5c-2.2,0.4-3,1.7-2.3,3.8
	c0.5,1.5,0.4,2.9-0.6,4.2c-0.5,0.6-0.9,1.2-1.6,0.8c-2.2-1.5-4.2,0-6.2,0.5c-2,0.5-3.9,0.6-5.4-0.5c-2.7-2.1-5.7-1.9-8.7-1.3
	c-2,0.4-2.5-0.4-2.3-2.1c0.1-1,0-2.1,0.5-2.9c1.5-3,2.2-6.4,4.3-9.1c1-1.2,0.7-2.7,0.5-4c-1.1-9,3.8-15.8,8.4-22.5
	c1.3-2,3.8-3.5,7-2.6c2.7,0.7,5.7,1,7.9-2.1c1.2-1.8,4-1.8,5.5-3.1c3.2-2.6,6.2-1.8,9.3-0.4c1.8,0.8,3.7,0.3,5.6,0.5
	c2.7,0.3,3.2,1.1,2.1,3.7c-1.4,3.4,0.8,6.9,4.4,6.9c0.6,0,1.4-0.6,1.9,0.2c0.5,0.9-0.3,1.5-0.8,2.1c-1.9,2.3-1.8,4,0.2,6
	c0.4,0.4,0.8,0.6,1.3,0.5c4.3-1.6,8.3,0.9,12.4,1c2.1,0.1,3.8,2.8,6.2,3.5c0.8,0.2,2,0.3,2.4,0.9c2.8,4.1,8.8,3.7,11.2,8.4
	c0.9,1.8,2.7,3.1,5.2,2.3c0.3-0.1,0.8,0.1,1,0.4c2.7,3.2,6.4,5.4,9.4,8.3c0.5,0.5,0.8,0.8,0.6,1.5c-0.1,0.5-0.6,0.5-0.9,0.5
	c-3.4-0.4-6,1.1-8.4,3.4c-0.3,0.3-1.1,0.2-1.7,0.7c2.1,0.4,4.3,0.9,6.4,1.2c1.6,0.2,3.1,0.5,3.6,2.4c0.5,2-1.4,1.8-2.2,2.6
	c-0.6,0.6-1.3,1.1-2.6,2.1c2.3-0.5,3.5-0.2,4.4,1.5c0.9,1.6,2.7,2.6,4.7,2.6c2-0.1,2,1,2.2,2.6c0.2,3,0.2,5.7-3.3,7
	c-0.9,0.4-1.7,1.6-2.6,2.2c-1.6,1.2-1.2,2.3-0.5,3.5c0.8,1.3,1.9,1.8,3.5,1.1c2.2-1,4.5-1.9,6.3,0.7c0.6,0.9,1,1.6-0.6,2.2
	c-2.9,1.1-4.9,3.3-7,5.8c2.8,1.3,5.5,1,8.3,1c3.1,0,6.3-0.5,9,1.9c1.2,1.1,1.2,1.6-0.1,2.7c-2.9,2.5-5.5,5-9.7,5.6
	c-3,0.4-5.4,2.7-5.2,6.7c-3-1.2-5.4-0.9-7.4,1.6c-1.5,1.9-3.8,1.3-5.8,1.3c-7.1-0.3-7.9,0.3-9.9,7c-0.5,1.6-1.2,3.1-2.5,4.3
	c-0.8,0.7-1.2,1.7-0.8,2.6c0.4,1,1.5,1.3,2.5,1.1c4.4-1.2,7.2,0.9,9.9,4c1,1.1,2.6,1.6,3.9,2.4c2,1.1,1.4,2.1,0,3.3
	c-2.1,1.8-4,1.5-5.7-0.3c-1.4-1.5-3.2-2.8-4-4.8c-0.6-1.5-1.9-2.1-3.6-1.8c-2.4,0.5-4.8,1.1-7.2,1.5c-3.3,0.6-6.5,0.7-9.4,2.6
	c-1.6,1.1-4.3-0.9-4.2-3c0.1-1.7-0.6-2.7-1.7-3.7c-2.1-1.8-4.5-3.3-5.1-6.4c-0.2-0.9-1.5-1.2-2.3-1.7c-2.1-1.3-4-3-3.4-5.9
	c0.9-4-0.4-7-3.8-9.1C49.1,500.8,48.7,500.3,48.3,499.9z M62.2,503.3c3.6,1.9,13.2-0.2,15.4-3.3c0.6-0.9,0.3-1.6-0.8-1.5
	c-3.4,0.5-7.2-0.4-9.8,2.8c-0.6,0.7-1.3,0.8-2.1,0.7C63.9,502,62.9,502,62.2,503.3z M80.3,491.4c4.9,2.7,9.8,1.7,14.7,0
	C90.1,491.4,85.2,491.4,80.3,491.4z M96.6,459.1c-4.1-2.7-7.9-5.9-13.2-5.6C88.3,454.1,91.7,458.2,96.6,459.1z M64.9,511.2
	c0.9-0.1,2,0.1,1.9-1.2c-0.1-1.6-1.4-1.9-2.7-2.1c-1.1-0.2-2.1,0.3-2.1,1.5C61.9,511.4,63.9,510.7,64.9,511.2z M71.8,453.8
	c-3.2-2.5-5.7-0.8-9,1C66.3,454.4,69,454.1,71.8,453.8z M79.9,448.3c-2.5-0.8-4.9-2.5-7.9-0.5C74.7,448.8,77.3,448.7,79.9,448.3z
	 M37.2,415.2c-1,0.5-0.9,1.3-1.2,2c-0.4,0.9-0.5,1.9,0.2,2.7c0.1,0.2,0.6,0.2,0.8,0.1c0.8-0.6,0.6-1.5,0.6-2.4
	C37.6,416.9,37.9,416,37.2,415.2z M220.1,563c1-5.2-3.4-7.4-5.8-10.6c-2.3-3.1-1.9-5.7,1.8-6.6c1.6-0.4,2-1.1,2.2-2.6
	c0.5-5.3,0.9-10.5-0.6-15.7c-0.2-0.7,0-1.4,0.2-2c0.9-2.5-0.1-3.9-2.4-3c-3.8,1.6-4.5-1.1-5.8-3.3c-0.7-1.3-1.2-2.7-2.1-3.9
	c-0.7-1-1.5-2.1-2.9-2.2c-1.2-0.1-2.8,0.5-3.6-0.8c-1.2-2-2.6-3.9-3-6.3c-0.2-1.5,3-5.7,4.8-5.8c1.6-0.1,2.5,1.4,3.6,2.6
	c1.8,2,1.5,3.8,0.3,5.8c-1.1,1.8-0.3,2.4,1.5,2c3.9-0.8,7-3.1,10-5.5c0.2-0.2,0.3-0.5,0.3-0.8c-0.3-2.8,0.3-5.4,1.8-7.8
	c0.2-0.4,0-1.1,0-1.7c-1.4-0.2-1.8,0.9-2.4,1.5c-2.3,2.5-4.5,2.5-6.4-0.4c-0.9-1.3-1.5-2.7-1.8-4.3c-0.6-3.5-2.6-4.2-5.4-2.3
	c-2.9,2-5.2,4.7-8.4,6.3c-1.4,0.7-3.2,1.4-3.7,0c-0.5-1.3-1.5-3.6,1.1-4.8c2.8-1.3,5-3.5,6.7-6.1c1.2-1.8,2.5-2.1,4.4-1.3
	c2.2,0.8,4.2,1.6,6,3.4c1.7,1.7,3.7,0.1,4.2-1.5c0.5-2,1.9-2.3,3.3-2.8c2-0.8,4.1-1.4,6.1-2c1.5-0.4,2.5-0.3,2,1.9
	c-0.4,1.6-0.4,3.4,0.1,5c0.6,2.1,1.9,2.3,3.5,0.9c0.3-0.3,0.7-0.5,0.8-0.9c1.4-4.8,5.4-5.3,9.5-5.9c3.9-0.6,7.7-1.4,11.4-2.9
	c4-1.6,6.7,1.9,9.6,3.7c1.7,1.1,1.4,3.4,0.8,5.4c-0.7,2.1-0.5,4,2.3,4.3c1.2,0.1,2.1,0.7,2.1,2c0,0.7-0.4,1.4-1,1.7
	c-1.3,0.6-1.7-0.6-2.2-1.3c-1.1-1.5-1.9-1.3-3.4-0.3c-3.2,2.2-5.7,4.9-8.2,7.7c-0.5,0.6-0.6,1.2-0.6,1.9c0.3,4-0.5,5.1-4.1,5.8
	c-2.5,0.5-5.4,5.1-4.8,7.7c0.2,0.9,0.8,1.3,1.5,1.7c2.8,1.7,3.4,4.1,1.4,6.8c-0.7,1-1.4,2-1.1,3.2c0.8,3.4-1.2,5.1-3.7,6.5
	c-1.1,0.6-1.9,1.4-2.5,2.5c-0.5,0.9-0.7,2.1,0.4,2.6c1.7,0.8,2.5,2.5,3.7,3.8c1.3,1.5,2.6,2.7,4.7,2.4c2.1-0.2,2.6,1.8,3.9,2.7
	c2.5,1.7,0.2,2.7-0.4,4c-0.5,1.1-0.9,2.2-0.8,3.4c0.2,2.1-1,3.7-2.4,5.1c-0.9,0.9-2.8,1.7,0.3,2.1c0.7,0.1,1.3,1.1,0.1,2.3
	c-3.3,3-7.1,1.1-10.6,1.5c-0.2,0-0.6-0.5-0.7-0.8c-0.3-0.8-0.3-2-1.5-1.7c-1.1,0.3-0.9,1.4-0.7,2.3c0.3,2.3-0.7,3.2-3,3.3
	c-4.3,0.1-4.5,0-4.5-4.3c0-0.5,0-1,0-1.5c0.1-1.7,0.1-3.4-1.6-4.4C222,560.1,221.9,562.8,220.1,563z M254.5,76.8
	c0.6,3.4,2.8,5.5,2.5,8.6c-0.1,1.2,0.3,2.6,2.3,2.8c2.6,0.2,5.2,3,5.3,5.7c0.1,2.1,0.1,4.3-0.5,6.5c-0.6,2.3-1.2,4.7,0.3,7.1
	c0.6,1,1.3,1.4,2.3,1.4c1.2,0,1.3-0.9,1.4-1.9c0.2-1.2,1.1-1.3,2.3-1.5c6.2-1.1,8.2,2.9,10.2,7.4c1.5,3.5,3.2,6.8,4.1,10.7
	c-2.6-0.2-4.7-1.5-6.9-2.5c-1.3-0.6-2.1-0.3-3,0.6c-1.4,1.5-2.4,3.3-3.3,5.1c-0.9,1.8-0.5,4.3-3.2,5.3c-0.7,0.2-0.6,2.3-0.9,3.6
	c-0.3,1.1-0.6,2.3-1.2,3.3c-0.6,1-1.6,1.9-2.9,1.6c-1.3-0.4-0.5-1.7-0.6-2.6c-0.3-3.1,1.1-5.6,3.2-7.6c0.8-0.7,1.7-1.3,1.1-2.4
	c-1.3-2.2-0.1-4.1,0.5-6.2c0.7-2,1.4-4.3-0.5-6c-2.3-2.1-4.8-1.5-7,1.7c0.9-4.7-1.2-7.5-4.4-9.9c-2-1.5-3.1-3.7-3.7-6.1
	c-0.5-1.9-1.3-3.2-3.5-3.8c-2.5-0.6-4.5-2.4-5.3-5c-0.5-1.6-1.3-2.2-2.7-1.9c-4.5,0.9-8.5-0.2-12.1-3.1c-1.3-1.1-2.7-0.5-3.9,0.7
	c-1.3,1.2-0.7,2.2-0.2,3.4c1.6,3.2,2.8,6.6,6.7,7.9c0.7,0.3,1.7,1.1,1.4,2c-0.2,0.6-1.1,1-1.8,1.3c-0.5,0.2-1.2,0.2-1.7,0.2
	c-3.4-0.3-6.3,1.3-9.3,2.6c-2,0.9-3.4,2.2-3,4.8c0.3,1.9-0.7,2.1-2,1.2c-1.5-1.1-3.6-1.6-3.7-4c0-0.6-0.5-1.2-1.1-1.3
	c-3-0.4-4.2-2.8-5.5-5.1c-0.9-1.6-2.5-1.3-3.8-1.7c-3.9-1.2-4.4-2.3-2.2-5.7c2.3-3.5,1.1-6.7-0.5-9.9c-0.3-0.7-0.6-1-0.2-1.7
	c1.9-3.9,1.6-5.9-1.3-9c-1.3-1.4-3.4-2.4-2.9-4.9c0.2-1.1-0.9-0.8-1.5-0.8c-3.1,0.4-5.1-1.2-7.4-3.2c-1.8-1.6-4.4-2.2-6.1-4.2
	c-2.1-2.4-3.4-5.5-3.3-9.1c0.2-0.1,0.4-0.3,0.5-0.3c3.4,3.9,8.8,3.4,12.9,5.8c4.4,2.5,5.3,2.4,7.7-2.4c0.8-1.5,1.8-1,2.7-0.7
	c1.5,0.5,2.8,1.2,4.4,1.6c2.9,0.7,4.9-0.2,6-2.7c0.5-1.1,1.2-1.5,2.2-1.6c1.6-0.1,2.8-0.8,4.1-1.5c1.8-0.9,3.3-1.9,2.2-4.7
	c-1.2-3.3-0.1-6.8,1.1-10.1c0.7-1.8,1.8-3.3,4.1-2.8c1.9,0.5,2.5-1.2,3.4-2.2c1-1,1.8-2.2,3.4-1.7c1.6,0.5,0.9,2,0.8,3.1
	c0,1.4,0.8,1.9,1.7,2.5c1,0.7,2.4,1.5,1.8,3c-0.5,1.3-1.9,0.7-2.8,0.6c-1.9-0.1-3.2,0.6-3.7,2.2c-0.5,1.5-1.4,2-2.8,2
	c-1.1,0-1.7,0.9-2,1.5c-0.4,0.9,0.5,1.8,1.2,2.1c1.6,0.8,3,2.5,5.3,1.2c1.1-0.6,1.8,0.2,1.2,1.3c-1,1.9-1.2,3.9-1.9,5.8
	c-1,2.6-4.1,2.3-6.2,3.3c-1.3,0.6-2.9,0.9-4.1-0.3c-0.9-0.8-1.4-0.3-2.2,0.1c-1.5,0.9-1.9,2.5-2.5,3.9c-0.8,1.7-1.5,3.7,0.3,5.2
	c1.7,1.4,3.1-0.1,4.5-0.9c3.2-1.7,6.7-0.1,7,3.4c0.4,3.7,3.4,5.1,6.9,3.1c3.5-2,3.5-2,3.9,2.2c0.2,2,0.7,3.4,3.2,3.1
	c1.3-0.2,2.6-0.1,3.8,0c2.7,0.1,4.1,2.5,2.7,4.7c-0.6,0.9-1.4,2-0.1,2.7c1.3,0.6,1.8-0.6,1.9-1.6c0.1-0.9,0.6-1.5,1.4-1.6
	C251.6,80.5,252.7,79,254.5,76.8z M205.8,63.3c-1-0.3-2.1,0.6-2,1.4c0.2,1.2,1.2,2.5,2.5,2.5c1.2,0,1.6-1.1,1.7-2.3
	C208,63.3,206.9,63.4,205.8,63.3z M215.5,70.4c-0.2-1,0.2-2.4-1.4-2.4c-1.3,0-1.7,1.2-1.9,2.2c-0.3,1.4,1,1.9,1.8,2.1
	C215.6,72.7,214.9,70.9,215.5,70.4z M201,185.3c0.9,0,1.6,0,2.3,0c4.5,0.1,8.6-0.2,11.4-4.7c1.5-2.5,4.2-3.7,7.3-3.5
	c1.9,0.1,3,0.7,2.8,2.8c-0.1,0.7-0.1,1.4,0,2.1c0.1,1-0.6,2.5,0.4,3c1.3,0.7,1.3-1.1,2-1.7c0.8-0.7,1.5-0.4,2.2-0.1
	c1.6,0.7,0.5,2.1,0.5,3.1c0.1,1-0.3,1.8-1.5,1.8c-0.2,0-0.4,0.1-0.6,0c-3.9-2.4-4.4,1.1-5.7,3.3c-0.7,1.3-1.1,2.8-2.1,3.8
	c-2.5,2.4-1.7,5-0.7,7.6c1.5,3.9,3.7,7.5,4.8,11.6c0.3,1.1,0.4,2.3,0.8,3.5c0.8,2.6-0.6,3.9-2.8,4.6c-4.2,1.3-8.3,2.5-11.9,5.3
	c-1.9,1.5-4.6,1.1-6.9,0.7c-4.3-0.7-8.6-1-12.9,0.1c-0.6,0.2-1.6,0.3-2-0.1c-2.4-2.2-6.1-2.5-7.9-5.6c-0.9-1.5-2.3-2.2-4.2-2.1
	c-2.7,0.1-4.6-1.2-5.8-3.7c-0.9-1.8-2-3.1-4.2-3.6c-3.2-0.7-4-3.9-4.4-6.3c-0.7-3.8-2.5-6.3-6.1-7.4c-1.6-0.5-1.8-1.3-1.5-2.8
	c0.5-2,0.4-4-1.1-5.8c-1.2-1.3-0.9-2.6,0.8-3.6c3.2-2,5-4.7,5-8.7c0-3.4,3.3-4.4,5.7-5.8c1.8-1,3.1-2.2,3.9-4.1
	c1.3-2.9,3.9-3.2,5.7-0.7c1.4,2,4.8,2.6,7,1.3c0.8-0.5,1.6-1.3,2.7-0.7c1.1,0.6,0.7,1.7,0.8,2.7c0,1.8,0.3,3.6-0.2,5.3
	c-0.7,2.4,0.3,3.5,2.1,5C191.1,185.3,195.9,186.1,201,185.3z M182.9,208.6c0.8,0,1.1,0.1,1.4,0c0.8-0.3,1.9,0.3,2.2-1
	c0.3-1.2-1-1.1-1.5-1.5c-3.6-2.4-7.8-3.6-11.9-4.7c-0.5-0.1-1.4-0.1-1.7,0.2c-0.4,0.6,0.2,1.1,0.7,1.7
	C175,206.9,179.2,207.7,182.9,208.6z M180.2,178.2c-1.3,0.1-2,1.2-1.9,1.9c0.3,1.5,1.1,3.1,2.8,3.2c1.5,0.2,1.8-1.2,1.9-2.4
	C183.1,179,181.2,179.1,180.2,178.2z M186.4,209.8c-2.1-1.6-4.2-0.6-6.2-0.6c-0.6,0-0.7,0.5-0.7,1.1c0,0.6,0.5,0.9,1,0.8
	C182.5,211,184.6,211.6,186.4,209.8z M398,139.3c0.9-5.6-0.8-7.4-6.4-7.4c-3,0-5.7,1.4-8.6,1.9c-1.1,0.2-0.9,1.1-1.1,1.8
	c-1,3.6-1.9,7.2-3.6,10.5c-1.7,3.1-4.4,5.5-5.5,9c-0.3,1-3.2,0.7-4.4-1.1c-0.9,1.2-1.1,2.4-1.5,3.6c-0.7,2.3-0.5,4.9-2.7,6.6
	c-1.6,1.3,1.7,2.9-0.3,4.3c-0.9-0.7-1.2-1.9-1.3-3.1c-0.1-1.3-0.7-2.2-1.6-3.1c-0.6-0.6-1.4-1.3-2.3-0.8c-0.8,0.4-1.3,1.2-1.4,2.1
	c-0.3,2.4,0.8,5.1-1.5,7.2c-0.6,0.5,0.8,1.6,1.3,2.4c0.8,1.4,1.3,2.9,0.9,4.5c0,0.1-0.6,0.3-0.7,0.2c-1.4-1-2.1-2.3-2.3-4
	c-0.1-1.3-0.6-2.2-1.7-3.2c-2.3-1.9-1.7-4.9-1.8-7.4c-0.1-4.9,1.8-9.4,2.5-14.2c0.2-1.2,0.8-1.7,2.3-1.4c1.4,0.3,2.6,0.8,4,1
	c1.2,0.2,2.1,0,2.9-1c0.8-1-0.1-1.6-0.6-2.3c-0.4-0.6-1.4-1.2-0.4-2c1.1-0.8,1.2,0.4,1.6,1c0.7,1,1.3,0.7,2.2,0.2
	c2.6-1.5,3.7-4,4.8-6.5c0.9-2,2.8-3.8,1.8-6.5c-0.3-0.8,0.3-1.9,1.3-2c4.6-0.6,7.2-4.1,9.6-7.4c2-2.8,4.7-4.4,7.6-6
	c0.4-0.2,0.7-0.3,1,0c3.3,2.1,5.2-0.7,7.4-2.3c0.3-0.2,0.6-1,0.4-1.3c-1.2-2.8,0.3-3.9,2.5-5.2c2.5-1.4,1.4-3.6,0.4-5.4
	c-1.8-3.3-4.4-5.7-7.7-7.5c-0.6-0.3-1.3-0.5-1.2-1.3c0.2-2.1-0.6-4.1-1-6.1c-0.1-0.5-0.5-1.5,0.4-1.7c0.7-0.2,1,0.4,1.4,1.1
	c0.8,1.7,1.6,3.5,3.2,4.8c0.5,0.4,0.8,0.9,1.5,0.7c0.8-0.2,0.6-1,0.6-1.5c0.1-1.2-0.3-2.5,0.1-3.5c0.7-1.8,2.4-2.4,4.4-2.1
	c7.2,1,11.7-1.2,14.7-8.1c1.2-2.7,2.6-2.1,4.4-1.5c3,1.1,5.8,3,9.2,1.5c1.2-0.5,1,0.8,1.1,1.5c0.1,2.3-3.5,5.9-5.9,6
	c-4.3,0.3-6.2,2.2-6.6,6.6c-0.2,2.7-0.5,5.1-4.2,5.8c-3.1,0.6-5.3,2.8-4.8,6.6c0.2,1.8,0.3,3.9-2.5,4.1c-0.9,0.1-1.8,1.4-1.6,1.8
	c0.6,1.1,1.6,2.5,2.7,2.9c3.6,1.4,7.3,2.5,11,0.1c0.9-0.6,1.8-0.8,3-0.3c1.9,0.8,3.5,0.5,4.6-1.7c0.8-1.5,2-3.2,3.5-3.8
	c3.3-1.5,5.8-4,9-5.6c3.4-1.7,5.6-4.2,7-7.8c2.4-6.2,5.5-8,10.6-6.3c0.6,0.2,1.3,0.5,1.8,0.9c3.7,3.1,5.9,2.8,10.1,0.3
	c3.4-2.1,2.6-5.2,3.1-8c0.3-1.6-0.7-3.8,0.6-4.8c3.1-2.3,5.4-5.8,9.2-7.2c1.9-0.7,2.9,0.7,3.1,2.6c0.1,0.7-0.1,1.7-0.5,2.3
	c-2.4,3-2.1,5.9,0.2,8.8c0.6,0.8,0.8,1.7,0.6,2.8c-1.2,6.1,2.3,11.1,8.4,11.8c0.9,0.1,1.8,0.2,2.2,1.6c-0.9,0.1-2.2,0.6-2.6,0.2
	c-3.1-2.7-5.5-0.4-8,0.9c-2.6,1.3-3.1,1.3-3.2-1.6c0-2.9-1.6-3.7-4-4c-3.9-0.6-7.5,1.1-11.3,1.4c-1.1,0.1-2.1,0.4-3.2,0.5
	c-7.4,0.4-11.8,5.2-11.6,12.5c0.1,2.2-1.2,3.8-2.9,4.9c-3.5,2.4-6.2,5.3-7.5,9.4c-0.1,0.4-0.6,0.8-1.3,1.3c1.5-5-2.9-6.1-5.1-8.5
	c-0.8-0.9-4,0.7-4.7,2.3c-0.6,1.4-1.1,2.8-2.1,4.2c-1.2,1.6,0.7,2.2,1.6,2.2c2.9,0.1,2.3,1.3,1.6,3.2c-0.6,1.6-1.4,3.1-1.2,5
	c0.2,2.1-2.9,3.7-4.4,2.3c-1.4-1.3-2.8-1.8-4.5-1.5c-4,0.7-5.9-2.2-7.8-4.7c-1-1.2-1.9-1.5-3-1c-3.6,1.7-7.8,2.4-10,6.6
	C401.9,135.4,399.7,136.8,398,139.3z M478,78c-1.1,0.1-2.1,0.2-2.6,0.9c-0.4,0.7,0.4,1.5,0.8,2.1c1.1,1.3,2.3,2.5,3.6,3.7
	c0.4,0.4,1.3,1,1.5-0.1c0.4-1.7,1.7-3.3,0.7-5.1C481.2,77.9,479.2,78.7,478,78z M399.6,127.1c0.5-1.6-0.7-2.6-2.2-2.9
	c-1.9-0.4-3.7,0.2-5.1,1.5c-1,0.9,0.3,1.4,0.8,1.6c1.2,0.6,2.6,0.7,3.7,1.4c0.6,0.4,0.8,1.8,1.9,1.2
	C399.8,129.5,399.6,128.4,399.6,127.1z M457.9,92.4c-0.1-0.9-0.6-1.3-1.4-1.2c-1.8,0.2-1.9,1.8-2.3,3c-0.2,0.7,0.7,0.6,1.3,0.6
	C457.1,94.8,457.3,93.4,457.9,92.4z M391.3,206.8c-1.8,0-2.4-1.8-3.6-2.6c-0.7-0.5-1.3-1.2-2.3-1.1c-0.8,0-1.8-0.2-2.4,0.7
	c-0.8,1.2,0.6,1.8,1.1,2c2.7,1.7,3.9,3.9,3.2,7.2c-0.4,2.2,1.5,2,2.5,1.6c3.5-1.5,6.2,0.2,9,1.9c2.5,1.5,5.2,0.9,7.6,0
	c1.5-0.6,3-0.8,4.6-0.8c0.6,0,1.5-0.3,1.8,0.5c0.3,1-0.4,1.7-1.1,2.2c-1.3,0.9-2.9,1.4-4.2,0.5c-3.3-2.1-6.3,0.5-9.4,0.5
	c-0.5,0-0.8,0.8-0.7,1.1c1.2,2.2,0,3.6-1,5.5c-0.7,1.3-0.5,3.4,0,4.9c1.4,3.7,3.6,6.9,7.2,9c1.7,1,3.4,0.9,4.5-0.7
	c1.7-2.5,4.1-2.9,6.7-3c4.3-0.2,8.7-0.1,11.7-4.1c0.4-0.6,1.1-0.5,1.5,0c0.4,0.4,1.1,1,0.4,1.8c-1.5,1.7-1.4,4.1-3.1,5.7
	c-3.6,3.5-3.7,4.8-1.1,9.2c0.2,0.3,0.5,0.8,0.4,1c-1.3,4.1,1.8,5.3,4.4,6.7c4.1,2.3,4.3,2.8,1.8,6.8c-1.1,1.8-1.7,4.4-3.3,5.2
	c-1.1,0.5-3.3-1.6-5.2-2.3c-5.3-2-7.6-0.9-10.1,4.3c-1.1,2.3-5.1,3-5.8,0.8c-0.3-1.1-0.1-2.3-1.3-3c-0.8-0.5-1.7-1.1-2.7-0.6
	c-1,0.5-0.6,1.5-0.7,2.4c-0.2,1.7,0.5,3.5-0.9,5c-0.5,0.6-0.5,1.8-1.7,1.6c-1.4-0.3-1.9-1.6-2.5-2.7c-0.4-0.7-0.6-1.9,0.4-2.4
	c1.5-0.6,1.3-1.8,1.4-2.9c0.2-1.9-0.7-4.1,1.4-5.7c0.6-0.4,0.2-1.9-0.1-2.8c-0.6-1.9-1.7-3.6-1.6-5.6c0-0.9-0.7-1.5-1.6-1.5
	c-3.4,0-5.5-2.3-7.8-4.3c-1.5-1.3-2.5-3.7-4.8-3.5c-3.1,0.3-6.2,1.1-8.6,3.4c-3.2,3-3.2,3-0.6,6.6c0.5,0.7,1,1.5,1.3,2.3
	c1.4,2.9,4.4,5.7,0.9,9.2c-0.3,0.3-0.2,0.9-0.3,1.4c-0.7,2.7-1.1,5.1-5.2,3.7c-2.7-1-5.8,0.1-8.5,1.4c-1.7,0.8-2.7-0.1-3.9-1
	c-1.4-1.1-0.3-2,0.2-2.7c0.9-1.5,0.1-2.4-0.7-3.4c-0.8-0.9-1.3-2.3,0-2.7c3.7-1.1,3.2-4.4,4.1-7c0.3-0.8,0.2-1.7,1.3-1.6
	c2.3,0.3,2.3-1.1,2.3-2.7c0-1.8-0.1-3.6,0.1-5.3c0.2-2.5,1.9-3.5,4.1-3.8c0.3,0,0.6,0.2,0.9,0.1c4.5-2.1,8.8-1.7,13.1,0.5
	c0.9,0.4,1.9-0.2,2.6-1c4.5-4.3,4.7-9.6,0.5-14.1c-0.8-0.8-1.7-1.6-2.7-2.2c-2.9-1.9-6.2-2.9-7-7.4c-0.6-3.6-4.7-5.5-7-8.3
	c-1.1-1.4-2.2-2.6-4.3-2.3c-1,0.1-2.2-0.6-1.8-1.7c0.3-1,1.3-0.8,2.4-0.4c2.3,0.7,4.6,1.7,7.1,1.5c2.1-0.2,3.8-0.6,4.6-3.2
	c0.8-2.7,4-3,6-4.7c1.1-0.9,2.2,1,3.1,1.7C389.3,202.9,392.1,203.6,391.3,206.8z M408.7,248.8c0-1.8-1.3-3.1-2.5-4.3
	c-0.5-0.5-1.3-0.7-1.9-0.3c-0.7,0.6-0.6,1.3,0,2c0.9,1.1,1.8,2.3,2.6,3.5c0.3,0.4,0.8,0.6,1.3,0.4
	C408.8,250,408.6,249.4,408.7,248.8z M293.2,171.7c0.2,3.8,2.8,4.8,5.5,5.8c1.1,0.4,2.3,0.7,3.1,1.6c1,1.2,2.3,1,3.5,0.4
	c3.4-1.8,6.7-3.7,10-5.5c1.1-0.6,1.4-1.7,1.6-2.7c0.3-1.4-1-1.2-1.9-1.5c-1.1-0.3-0.5-1.5-0.3-2.3c2.5-7.4,2.2-8.4-4.3-12.7
	c-1.9-1.3-1.8-3-0.9-4.6c1-1.7,1.5-3.6,2.2-5.4c0.8-2.2,0.9-4.3-1.5-6c-1.9-1.3-1.4-5.5,1-7.5c1.4-1.2,3-2.2,4.7-3
	c2.6-1.4,5.3-2.6,7.2-4.9c0.4-0.5,0.8-0.9,1.5-0.7c1,0.3,0.6,1.1,0.6,1.7c0,1.9-1.3,3.3-2.4,4.6c-2.4,2.8-1.3,5.7-1,8.6
	c0.1,1.1,1.3,1.1,2.1,1.1c4.8,0,7.9,3.1,11.1,6c0.8,0.8,1,1.7,0.8,2.7c-0.7,3-1.7,5.8-3.8,8.2c-1.4,1.6-2.8,3.1-5.2,1.8
	c-0.4-0.2-1-0.5-1.3,0c-0.5,0.7,0.1,1.1,0.5,1.5c0.9,0.9,2.4,1.4,2.3,3.2c-0.2,2.6-0.7,5.1-1.8,7.3c-0.8,1.6-2.6,1.5-4.2,1.5
	c-0.9,0-1.6,0.3-1.9,1.1c-0.4,0.9,0.6,1.1,1,1.5c2.8,2.6,2.9,6.3,3.8,9.5c0.7,2.4,0.2,5.2-0.5,7.9c-0.9,3.4-1.1,6.9,0.2,10.5
	c0.8,2.2,2.1,3.3,4.3,3.3c2.5,0,3.6,1.1,3.3,3.6c-0.1,0.5,0,1,0,1.5c0,4.4-1.6,5.4-5.7,3.2c-1.1-0.5-2-0.7-3.1-0.4
	c-4.1,1-8.7,1.1-11.7,4.8c-0.5,0.6-1.3,1-2.1,0.7c-1.1-0.3-0.7-1.3-0.6-2c0.1-2.6,0.1-5-1.9-7.1c-1.1-1.1-0.8-2.6-0.4-4
	c1.5-5.5,0-8.6-5.4-10.6c-1.8-0.7-3.1-1.3-3.2-3.6c-0.1-2-2.5-3.2-3.6-2.7c-2.7,1.1-2-0.8-2.2-1.9c-0.9-3.6-1.2-7.2-1-10.9
	C291.4,174.3,291.6,173.1,293.2,171.7z M322.4,152c-0.8-0.6-1.1-2.2-2.6-2.2c-0.9,0-1.3,0.8-1,1.4c0.5,1,1,2.3,2.3,2.3
	C321.8,153.6,322.6,153.2,322.4,152z M256.1,275.3c0.4,1.9,0.8,3.8,1.3,5.7c0.9,3.4,3.4,5.5,6.9,5.7c3.3,0.2,5.8,1.7,7.6,4.3
	c0.6,0.9,1.5,1.4,2.3,2c1-2,3.9-0.3,4.8-2.5c0.1-0.3,0.1-0.8,0.2-0.8c3.5-0.7,3.5-4.7,5.7-6.3c2.2-1.6,1.6-3.1,0.8-4.8
	c-2-3.8-1.6-4.6,2.1-6.4c2.1-1,3.8-2.1,6.4-1.6c1.8,0.4,3.8-0.8,3.9-3.4c0-0.8,0.3-1.5,0.6-2.3c0.6-1.6,2-1.2,3.3-1.3
	c1.5-0.1,1.4,1.1,1.5,2.1c0.2,2.4,0.5,4.7,0.4,7.1c-0.2,3.5-0.2,7-4.4,8.8c-1.5,0.6-2.1,2.6-2.6,4.3c-0.9,2.9-0.5,6.2-3.3,8.7
	c-1.7,1.5-1.6,4.1,0.6,6.1c3,2.7,5.6,5.9,6.7,10c0.6,2.3,0.2,3.8-2.2,4.6c-2.9,1-4.9,3.3-6.8,5.4c-0.9,1-1.8,2.1-3.2,1.5
	c-1.2-0.5-0.5-1.9-0.6-2.9c-0.1-3.1-1.1-4.3-3.6-3.4c-3.4,1.2-5-0.9-6.8-2.9c-0.4-0.4-0.2-1.4-0.9-1.3c-3.1,0.5-5.7-1.5-8.6-1.9
	c-1.3-0.1-2.5,0.3-3.6,1c-2.6,1.6-5.2,0.9-6.7-1.6c-0.5-0.8-0.9-1.9-2.1-1.7c-1.4,0.3-2.6,0.8-3.1,2.4c-1.4,4-2.3,4.4-5.9,2.5
	c-1.2-0.6-2.3-1.1-3.7-0.6c-1.1,0.4-2.3,0.1-2.8-0.7c-0.5-0.8-0.1-1.9,0.5-2.8c2.2-3.4,3.4-7.2,4.9-10.9c0.6-1.4,1.5-3.1,3-4.2
	c1.6-1.1,2.1-2.8,0.9-4.6c-1.1-1.7-1.1-3.5,0.6-4.7C253.1,281.7,254.7,278.8,256.1,275.3z M340.7,407.7c-1.9-0.2-4.9-1.4-7.7-2.6
	c-4.7-1.9-5.6-1.7-7,3c-1.4,5.1-4.6,5.6-9.1,4.1c-3.8-1.3-4.6-2.5-2.6-5.9c1.1-2-0.6-3.9-1.2-5.8c-0.3-0.9-1.2-0.2-1.8,0
	c-1.9,0.5-2.5-0.2-2.3-2.1c0.2-1.6,0.1-3.1,0.9-4.6c1.6-3,1-4.1-1.9-6c-1.4-0.9-3-1.2-4.4-2.1c-1.7-1.1-2.1-1.9,0-3
	c2.8-1.6,5.8-1.8,8.9-1.6c1.6,0.1,2.8-0.1,3.2-2.1c0.4-2.3,3-2.4,4.6-3.1c3-1.4,5.9-2.9,8.4-5.1c1.3-1.2,2.6-1.7,4.3-1.2
	c2.4,0.8,4.2-0.2,5.9-1.7c1.3-1.2,2.8-2.2,3.7-3.6c1.1-1.6,2.7-1.6,4.3-1.8c1.2-0.2,1.8,0.4,1,1.5c-1.8,2.5-1.1,4.5,1.2,6.1
	c1.2,0.8,1,1.6,0.3,2.7c-1.2,2-1.2,4.5-2.4,6.6c-0.1,0.2-0.2,0.7-0.1,0.8c3,3,0,3-1.7,3.8c-1.6,0.8-1.2,2.6-1.5,4
	c-0.7,2.6-1.6,5.3,1,7.6c0.4,0.3,0.3,1.3,0.3,2c0,2-0.2,3.9,1.3,5.8C347.9,405.4,345.7,407.7,340.7,407.7z M133.3,526.9
	c-4.7-0.2-7.8,1.2-10.9,2.3c-6.4,2.3-12,1.6-17.2-2.8c-0.3-0.3-0.5-0.6-0.8-0.8c-1-0.9-3-0.6-3.2-2.3c-0.1-1.6,1.5-2.4,2.3-3.6
	c1.3-1.9,2.2-3.9,2.7-6.1c0.5-2.1,1.6-3.1,3.8-1.8c2.7,1.7,5.4,1.2,8.1,0c2.9-1.3,5.7-2.3,9-1c2.4,0.9,3.9-1.2,5.5-2.6
	c2-1.8,7.2-1.3,8.2,1.2c0.7,1.8-0.3,3.8-1.1,5.6c-1,2.2-2.5,4.1-4.2,5.9c-0.5,0.5-1.3,1.1-0.9,2c0.4,0.9,1.4,0.6,2.1,0.7
	c2.3,0.4,3.8-1.5,5.7-2.1c0.9-0.3,1.9-1.2,2.6,0c0.6,1.1-0.6,1.7-1.2,2.4c-0.5,0.5-1.2,1.1-1.7,1.1
	C138.5,524.6,135.4,526.5,133.3,526.9z M275,466.2c-5,3.5-9.7,6.8-15.3,8.6c-2.2,0.7-4.2-0.1-5.5-1.9c-0.9-1.3-1.7-1.3-2.9-0.7
	c-4.5,2.4-9.2,1.6-13.8,0.9c-3-0.5-6-1.7-8.8-3c-1.3-0.6-2.2-1.3-2.4-2.5c-0.2-1.2,1.3-1.3,2.1-1.7c2.8-1.3,4.5-3.9,7.1-5.5
	c1.6-1,2.8-1.2,4.5,0c2.8,2,5.9,3.8,9.1,5.1c0.7,0.3,1.5,0.9,2.2,0.2c0.7-0.6,0.2-1.5,0.1-2.2c-0.6-2.4-1.5-4.7-1.9-7.1
	c-0.4-1.9-0.8-4.1,2.4-4.2c0.2,0,0.6-0.2,0.7-0.4c1.5-4.1,5.5-2.7,8.4-3.7c2.1-0.7,2.6,0.6,2.2,2.4c-0.5,2.2-1.5,4.2-2.1,6.4
	c-0.9,3-1.3,5.7,1.2,8.2c2.5,2.5,5.4,1.8,8.3,1.1C271.6,465.7,273,465.1,275,466.2z M172,473.4c-4.6-0.2-7.9,2-10.3,5.6
	c-1.1,1.6-2,2.3-3.5,0.3c-0.8-1-1.8-1.4-3.3-0.7c-1.6,0.8-0.8,1.5-0.5,2.5c1.4,4.8,4.1,6.1,9.8,4.4c1.4-0.4,2.8-1.1,4.2-1.4
	c0.7-0.1,1.9-0.8,2.3,0.3c0.4,0.9,0.3,2.3-0.6,2.7c-2.8,1.4-2.4,3.2-1.4,5.6c0.6,1.6,2,4.1,0.4,5.2c-1.7,1.1-3.5-1.1-5-2.3
	c-0.9-0.8-2-1.2-3-1.7c-1.7-0.7-3.5-0.8-3.2,2c0.3,2.9-1.7,2.7-3.2,2c-2.4-1.1-4.2-1.3-6.3,0.6c-1.4,1.3-6.7-1.2-7.8-3.6
	c-1.1-2.4-2.2-4.8-2.5-7.5c-0.3-2.6,0.8-4.3,3.2-5.3c2.5-1,5.7-0.9,5.7-5.1c0-0.9,1.5-2.4,3.1-2.4c5.6,0,10.6-2.6,15.8-4.1
	c2.6-0.7,5.3-0.7,7.8-1.5c2.2-0.7,2.6,1,2.7,2.4c0.2,1.9-1.2,1.9-2.6,1.8C173.2,473.4,172.6,473.4,172,473.4z M251.7,53.5
	c1.1-5.4,1.1-10.7,0-16c-0.6-2.8,1.2-5.1,3.1-6.9c2.2-2.1,3.3-4.5,2.8-7.6c-0.3-1.9,0.1-3.6,1.5-5.2c2.2-2.4,2.4-5.5,2-8.5
	c-0.3-2.2,1.1-3,2.6-3.6c1.7-0.7,3.1,0.1,3.7,1.9c1.2,3.7,4.3,6.9,2.9,11.3c-0.4,1.2-0.8,1.7-2.1,1.9c-3.4,0.6-4.8,2.3-4.5,5.6
	c0.1,1.3-0.1,2.1-1.2,3c-2,1.6-2.1,3.4-0.3,5.3c0.8,0.8,1.4,1.8,1.4,2.8c0,1.5-0.2,2.9-2.4,2.7c-2.2-0.2-3.3,1.1-2.5,3.1
	c0.6,1.6,1.6,3,0,4.5c-0.4,0.4-0.2,1,0.3,1.2c1,0.5,1.7-0.3,1.8-0.9c0.4-1.7,1.1-3.2,2-4.6c0.6-0.9,1.2-2.6,2.8-1.4c1.3,1,1,2-0.4,3
	c-1,0.7-0.6,1.9,0,2.9c1.1,1.9-0.2,7.4-1.9,8.5c-1.1,0.8-1.4-0.4-1.8-0.8c-1.3-1.2-1.9-3.8-3.8-3.5c-1.6,0.2-2.2,2.5-3.2,4
	c-0.3,0.4-0.4,1.1-1.2,1c-0.9-0.2-1-0.7-1.1-1.4C252.1,55,251.8,54.2,251.7,53.5z M490.1,2.3c1.1,3.5,4,4.6,7.1,2.6
	c1.8-1.2,3.6-2.4,5.2-3.9c1.6-1.6,2.6-1.2,3.6,0.5c0.2,0.4,0.5,0.8,0.9,1.2c0.6,0.6,1.5,1.3,1.1,2.2c-0.5,1.3-1.7,0.7-2.6,0.7
	c-5.8,0-10.5,2.2-13.9,6.8c-2.7,3.6-2.9,7.1-0.6,9.8c0.7,0.8,1.2,1.8,1.1,3c-0.2,1.8,0.6,3,2.3,3.7c0.6,0.2,1.4,0.7,1.4,1.4
	c0,1.1-1,0.7-1.6,0.8c-2.8,0.5-4.8,2.1-6.3,4.4c-1.4,2.2-2.4,2.1-3.4-0.4c-0.5-1.1-0.7-2.3-1-3.4c-0.5-1.7-1.7-2.6-3.4-3.1
	c-1.7-0.5-2.8-0.1-3.7,1.4c-0.6,1.1-1.5,0.9-2.2,0.4c-0.7-0.4-1.5-1-1.3-2.1c0.2-1,0.9-1.2,1.7-1.2c1.5,0.1,1.8-0.8,1.8-2
	c0-0.9,0.1-1.8,0-2.7c-0.2-2.7,0.3-4.8,3.1-6.3c2.8-1.6,3.2-5,1.4-8.1c-1.3-2-0.3-3.1,1.3-2.7C485.5,6.2,487.8,4.5,490.1,2.3z
	 M489.6,22.9c-0.5-0.7-1-1.3-2-1.3c-0.8,0-1.5,0.4-1.4,1.1c0.1,1,0.9,1.7,2,1.6C489,24.3,489.5,23.8,489.6,22.9z M251.6,199.4
	c-0.2,4.7-1.9,9.1-3.1,13.5c-1.1,3.7-1.7,7.2-1.3,11c0.1,1-0.1,2-0.2,2.9c0,0.5-0.2,1-0.8,1.1c-0.6,0.1-0.7-0.4-1-0.7
	c-8.7-8.3-9.1-19-8.8-29.9c0.1-2.4,4-5.5,6.3-4.8c2.9,0.8,5.6,2.2,8,4.1C251.4,197.2,251.9,198.3,251.6,199.4z M79.9,401
	c0.3,1.8,0,3.1-1.9,3.7c-2.1,0.7-3.1,3.5-5.8,3c-3.8-0.8-7.4-2.3-10.6-4.5c-0.6-0.4-1.1-0.8-1.1-1.6c0-2.8-1-5.4-1.7-8.1
	c-0.3-1-0.5-2.2,0.4-3.1c1-0.9,2-0.2,3,0.1c3.5,1.2,6.3,3.3,9.1,5.6c1.6,1.3,2.9,1.7,3.9-0.6c0.8-1.8,2-1.5,2.8-0.2
	C79.2,397,80.5,398.8,79.9,401z M151.3,623c-2.2-0.5-4.5,0.3-6.5,2.2c-0.7,0.6-1.8,1.3-2.6,0.3c-0.7-1,0.4-1.7,1-2.1
	c2.3-1.6,2.8-3.8,2.5-6.4c-0.1-1.3-0.6-3.1,1.9-3c0.7,0,1-0.9,0.7-1.3c-1.7-1.9-0.2-3.2,0.7-4.7c0.6-1,1.3-2,0.5-3.5
	c-0.6-1.2,0.2-2.5,1.7-2.9c1.4-0.4,2.3,0.1,2.5,1.6c0.2,1.2,0.9,2.2,0.9,3.4c0,1.4,0.8,3.1,1.9,3.5c3.8,1.4,2.9,3.6,1.7,6.2
	c-0.9,1.7-1.8,3.5-1.8,5.6c0,1-0.6,1.1-1.3,1.1C154,622.9,152.9,623,151.3,623z M231.1,234.9c0.6,1.8-1.1,2.7-2.2,3.6
	c-0.7,0.6-1.6,1.1-2.4,1.7c-1.9,1.2-3.6,2.2-6.2,0.9c-3.4-1.6-7.4-0.5-11.1-0.7c-0.7,0-2,0.7-2.1-0.8c0-1.2,1-1.3,2-1.2
	c0.9,0.1,1.8,0,2.4-0.8c3.4-4.7,9.3-5.4,13.8-8.3C228,227.5,231,230.5,231.1,234.9z M128.9,482.4c-2.2,0.6-3.1-0.7-3.5-2.8
	c-0.4-2.1-0.7-4.2-2.9-5.4c-1.1-0.6-1.2-2.1-0.8-3.2c1.1-2.7,2.8-5,4.5-7.3c1.2-1.6,2.2-0.2,3.3,0.3c1.3,0.6,0.5,1.6,0.1,1.9
	c-1.8,1.7-0.4,3,0.5,4.2c0.9,1.2,2.1,2.2,3.2,3.3c1.6,1.5,3.5,3.2,2.4,5.5C134.5,481.2,132.2,482.7,128.9,482.4z M218.9,261.8
	c1.2-0.1,2-0.2,2.8-0.1c1.7,0.2,4.1-0.7,4.7,1.4c0.5,1.9,2.5,4.4-0.5,6.2c-0.2,0.1-0.3,1-0.2,1.4c1.3,2.4-0.7,3-2.1,3.8
	c-2.4,1.4-3.1,1.1-3.3-1.6c-0.2-3.3-2.4-3.9-4.9-3.8c-4,0.1-2.6-3-2.9-4.8c-0.5-2.3,1.3-2.4,3-2.4
	C216.8,261.8,218.1,261.8,218.9,261.8z M338.3,140.1c-4.3-0.2-7.5-1.8-9.3-5.8c-0.6-1.4,2.2-8.9,3.6-9.2c0.3-0.1,0.9,0.1,1.1,0.3
	c2,2.4,5.4,3.7,5.6,7.4c0,1.2,0.7,1.8,1.6,2.2c1.2,0.5,2.5,1.2,2.4,2.6c-0.2,1.6-1.9,1.8-3.1,2.2C339.5,140,338.8,140,338.3,140.1z
	 M126.2,439.8c1.8,1,4.6,1.9,5.8,4.5c1,2-1.3,2.4-2.4,3.3c-0.9,0.8-1.9,1.6-3,0.2c-1.6-2.1-2.5-4.4-2.3-7
	C124.4,439.8,124.8,439.6,126.2,439.8z M412.2,306.1c1.9,1.4,3.3,3.3,5.6,3.8c0.7,0.1,0.7,0.7,0.5,1.1c-0.4,0.9-0.8,1.8-1.4,2.5
	c-0.9,1.1-2.1,2.6-3.4,2.3c-1.2-0.3-1.2-2.3-1.4-3.6C411.7,310.2,411,308.2,412.2,306.1z M147.6,210.5c2,0.8,3.5,2.2,5.5,1.2
	c0.9-0.4,1.2,0.2,1.5,1.1c0.6,2.4-1.8,2.8-2.8,4c-1,1.1-2.2,0.2-3.4-0.4c-1.5-0.8-1.8-1.9-1.5-3.4
	C147.1,212.3,147.4,211.4,147.6,210.5z M368.8,423.6c-1.6,3.6-4.4,5.4-6.5,7.7c-0.5,0.5-1.3,0.8-1.9,0.4c-0.6-0.4-0.2-1.2-0.1-1.9
	c0.2-0.9,0.4-1.7,0.4-2.6c-0.1-1.2,0.3-1.9,1.5-2.1C364.2,424.6,366.2,424.1,368.8,423.6z M225.4,460.4c-2.4,2.3-4.9,4.6-7.3,7
	c-1.5,1.6-2-0.2-2.7-0.8c-0.8-0.6-2-1.4-0.5-2.4c3.2-2.2,7-2.8,10.3-4.6C225.3,459.9,225.4,460.2,225.4,460.4z M408.6,211
	c-2.3-0.4-4.1-0.4-4.7-2.6c-0.6-2.1,1.4-3.2,1.7-5c0.1-0.6,2.1-0.7,2.9,0.1c0.5,0.6,0.5,1.6-0.5,2.2c-2.4,1.6-0.7,2.5,0.7,3.3
	c0.5,0.3,1.6,0,1.2,1.1C409.5,210.9,408.8,211.1,408.6,211z M369.6,220.8c-0.4,1.7-0.5,3.5-1.2,5c-1,1.9-2.8,0.5-4.2,0.3
	c-1.5-0.2-1.9-1.5-2.1-2.8c-0.1-0.5,0.4-0.8,0.7-0.6C365.6,224,367.6,222.7,369.6,220.8z M245.2,445.2c-0.1-0.8,0.5-1.3,1.7-1.2
	c0.7,0,1.4-0.2,2-0.2c1.1,0.1,2.5-1.5,3.2,0.3c0.4,1-3.2,4.5-4.5,4.5C245.7,448.6,245.3,447.3,245.2,445.2z M291.3,231.5
	c-3.4-2.1-4.1-4.1-2.5-6.4c0.5-0.8,1.1-1.4,2.1-1.2c1.2,0.2,1.1,1.3,1,2.1C291.8,227.7,291.6,229.5,291.3,231.5z M156.5,515.1
	c-0.2-4.1,1.2-5.6,6.2-6.5C161.5,511.6,160.2,514.4,156.5,515.1z M258.1,438c-1.5,0.1-1.8-0.3-1.2-1.9c1-2.6,3.4-2.3,5.4-2.7
	c0.9-0.2,0.9,0.8,0.6,1.2C261.6,436.2,260.6,438.1,258.1,438z M112.1,456.9c1.5,0.1,2.6,0.6,3.4,1.6c0.6,0.6,1.6,1.4,0.7,2.2
	c-0.8,0.8-2,0.6-2.9-0.2C112.5,459.5,112.1,458.3,112.1,456.9z M377.3,194.6c-0.4,1.3-0.6,2.7-2,3.1c-0.9,0.3-1.2-0.6-1.2-1.2
	c0-1.4,0.8-2.4,2-2.9C377,193.1,377,194.1,377.3,194.6z"/>
</svg>
