<?xml version="1.0" encoding="utf-8"?>
<!-- Generator: Adobe Illustrator 19.0.0, SVG Export Plug-In . SVG Version: 6.00 Build 0)  -->
<svg version="1.1" id="Layer_1" preserveAspectRatio="none" xmlns="http://www.w3.org/2000/svg" xmlns:xlink="http://www.w3.org/1999/xlink" x="0px" y="0px"
	 viewBox="0 0 716 335" style="enable-background:new 0 0 716 335;" xml:space="preserve">
<style type="text/css">
	.st0{fill-rule:evenodd;clip-rule:evenodd;}
</style>
<path class="st0" d="M713,125.9c-3.2,11.7-10.5,22.7-12.6,34.4c-8.9,48.4-13.7,42.4-22.4,90.9c-3,16.4-6.2,33.6-13.7,48.5
	c-4.3,8.4-16.9,16.8-26.5,18.7c-38.4,6.8-77,12-115.7,15.5c-42.8,3.8-84.7-3.1-126.3-10.5c-24.6-4.4-193.9-5.7-395.8-5.2V0h711
	c0,0.4,0,0.7,0,1.1c0.1,22.2,3.6,35.3,4.9,57.5c0.3,6.3-1.1,12.9-2.3,19.2C710.4,93.9,717.4,110,713,125.9z"/>
</svg>
