<?xml version="1.0" encoding="utf-8"?>
<!-- Generator: Adobe Illustrator 19.0.0, SVG Export Plug-In . SVG Version: 6.00 Build 0)  -->
<svg version="1.1" id="Layer_1" preserveAspectRatio="none" xmlns="http://www.w3.org/2000/svg" xmlns:xlink="http://www.w3.org/1999/xlink" x="0px" y="0px"
	 viewBox="0 0 1493.2 736" style="enable-background:new 0 0 1493.2 736;" xml:space="preserve">
<style type="text/css">
	.st0{fill:#4B351C;}
</style>
<path class="st0" d="M1439.9,699.3c7.7-15.5,11-33.4,14-50.5c8.9-50.5,13.8-44.3,23-94.6c2.2-12.2,9.7-24.6,13-36.8
	c4.5-16.5-2.4-33.3,0.9-50.1c1.3-6.6,2.7-13.4,2.4-20c-1.3-23.1-4.9-36.7-5-59.8c-0.1-26.3-3.5-50.6-19.1-72.6
	c-7.1-10-7.3-23.5-2.1-37.7c5.5-14.9-0.5-51.7-1.9-67c1,12.2,4.7-60-3.8-115.7c-1.1-7.4,3.3-94.4,3.3-94.4H16.3
	c0,0-13.6,305.4-15.4,348.5c-0.3,5.9,0.5,11.8,0.8,17.7c1.1,18.1,3.5,36.1,3.1,54.2C4.3,444.8-0.2,469.5,0,494
	c0.4,50.4,12.6,101.7,14.2,151.9c0.3,11,0.1,22.3,2.7,32.8c9.1,37.3,15.6,39.1,45.1,41.5c35.5,2.9,71.1,3.7,106.4,9.5
	c33.6,5.4,70,0.5,104.7-4.2c51.9-7.1,840.4-10.8,891.6-1.6c42.6,7.7,85.5,14.9,129.4,10.9c39.7-3.6,79.2-9.1,118.6-16.1
	C1422.6,716.8,1435.5,708,1439.9,699.3z"/>
</svg>
