<?xml version="1.0" encoding="utf-8"?>
<!-- Generator: Adobe Illustrator 19.0.0, SVG Export Plug-In . SVG Version: 6.00 Build 0)  -->
<svg version="1.1" id="Layer_1" xmlns="http://www.w3.org/2000/svg" xmlns:xlink="http://www.w3.org/1999/xlink" x="0px" y="0px"
	 viewBox="0 0 715 338" preserveAspectRatio="none" style="enable-background:new 0 0 715 338;" xml:space="preserve">
<style type="text/css">
	.st0{fill:#BEC0C1;}
</style>
<path class="st0" d="M18.8,313.2c-2.5-9.2-3.4-19.9-4.2-30.1c-2.4-30-4.3-60.2-6.7-90.2c-0.6-7.3-3.1-14-4.1-21.3
	c-1.4-9.8-2.2-19.8-3.1-29.8c-0.4-3.9-0.8-8-0.5-11.9c0.8-13.8,2.3-27.5,2.7-41.3c0.5-15.7,2-30.1,8-43.2c2.7-5.9,5-16.7,6-31.9
	C17.5,4.4,141.2-4.4,170.2,2.4C179.7,4.7,566.7-6.5,697,8c14,1.6,10.8,14.9,18,20c-0.1,25.7,0,51.3-0.1,77c0,3.5-0.4,7-0.6,10.5
	c-0.7,10.7-1.8,21.5-2,32.2c-0.2,14.6,1,29.2,0.6,43.8c-0.9,30-2.5,59.9-3.9,89.8c-0.3,6.5-0.4,13.3-1.5,19.5
	c-3.8,22.2-6.2,23.3-16.8,24.7c-12.8,1.7-25.5,2.2-38.3,5.6c-12.1,3.2-25.1,0.3-37.5-2.5c-18.5-4.2-388.8,4.6-428,7.9
	c-39.2,3.3-100.8,0-116.5-2.3c-14.2-2.1-28.3-5.4-42.3-9.6C24.7,323.6,20.2,318.4,18.8,313.2z"/>
</svg>
