<svg id="Capa_1" enable-background="new 0 0 512 512" height="512" viewBox="0 0 512 512" width="512" xmlns="http://www.w3.org/2000/svg"><path d="m512 60c0-33.084-26.916-60-60-60-22.685 0-43.136 12.991-53.274 32.438-7.325-1.592-14.927-2.438-22.726-2.438-57.897 0-105 47.103-105 105v47.076c-4.901-.704-9.907-1.076-15-1.076s-10.099.372-15 1.076c0-13.991 0-60.065 0-77.076 0-41.355-33.645-75-75-75h-30c-8.523 0-16-7.009-16-15v-15h-45c-41.355 0-75 33.645-75 75 0 24.484 11.796 46.262 30 59.959v61.041c0 29.276 12.39 56.576 32.958 75.979-35.649 5.78-62.958 36.765-62.958 74.021v136h151v30h210v-30h151v-136c0-37.256-27.309-68.241-62.958-74.021 20.568-19.403 32.958-46.703 32.958-75.979v-61c0-7.473-.798-14.763-2.304-21.798 19.372-10.162 32.304-30.569 32.304-53.202zm-136 0c36.702 0 67.409 25.808 74.471 60h-28.471c-16.804 0-31-13.738-31-30h-30c0 16.542-13.458 30-30 30h-28.491c6.969-34.192 37.271-60 73.491-60zm-105 299.901v16.099c0 8.271-6.729 15-15 15s-15-6.729-15-15v-16.099c-.371-.263-60-15.087-60-73.901 0-36.219 25.808-66.522 60-73.491v58.491h30v-58.491c34.192 6.968 60 37.271 60 73.491 0 60.217-58.298 72.697-60 73.901zm-196-329.901h17.656c6.18 16.84 23.081 30 43.344 30h30c24.813 0 45 20.187 45 45v15h-136c-24.813 0-45-20.187-45-45s20.187-45 45-45zm-15 166v-47.509c4.848.988 9.864 1.509 15 1.509h136v41.145c-35.443 16.882-60 53.053-60 94.855 0 8.271-6.729 15-15 15-8.523 0-16-7.009-16-15v-16.099l-9.976-3.546c-29.92-10.637-50.024-38.91-50.024-70.355zm91 241v15h-61v-61h-30v61h-30v-106c0-24.813 20.187-45 45-45h17.667c6.273 17.088 23.304 30 43.333 30 8.233 0 15.95-2.233 22.596-6.109 7.054 17.426 18.726 32.76 33.793 44.246-24.246 12.469-41.389 38.096-41.389 67.863zm180 45h-150v-45c0-20.781 14.318-38.863 33.208-44.314 6.641 16.576 22.871 28.314 41.792 28.314s35.151-11.738 41.792-28.314c18.89 5.451 33.208 23.533 33.208 44.314zm151-136v106h-30v-61h-30v61h-61v-15c0-29.666-17.052-55.347-41.389-67.864 15.067-11.486 26.739-26.819 33.793-44.246 6.646 3.877 14.363 6.11 22.596 6.11 20.021 0 37.058-12.906 43.333-30h17.667c24.813 0 45 20.187 45 45zm-80.024-79.645-9.976 3.546v16.099c0 7.991-7.477 15-16 15-8.271 0-15-6.729-15-15 0-41.802-24.557-77.973-60-94.855v-41.145h30c18.008 0 34.188-7.974 45.195-20.577 11.373 12.701 27.711 20.577 45.805 20.577h30v46c0 31.445-20.104 59.718-50.024 70.355zm67.041-181.665c-9.668-17.47-24.207-31.932-41.793-41.589 5.478-7.969 14.686-13.101 24.776-13.101 16.542 0 30 13.458 30 30 0 10.039-5.082 19.202-12.983 24.69z"/></svg>