<svg id="Layer_1" enable-background="new 0 0 512 512" height="512" viewBox="0 0 512 512" width="512" xmlns="http://www.w3.org/2000/svg"><path d="m497 218.104c-11.195 0-22.319.367-33.359 1.084-3.732-2.557-7.69-5.155-11.891-7.769v-40.597c17.529-6.198 30.125-22.927 30.125-42.552v-60.25c0-24.882-20.243-45.125-45.125-45.125s-45.125 20.243-45.125 45.125v60.25c0 19.624 12.596 36.354 30.125 42.552v24.031c-23.871-11.632-54.145-22.951-90.5-29.942v-48.327c1.647.594 3.362.896 5.072.896 4.561 0 9.065-2.072 12.012-6.001 4.971-6.627 3.627-16.029-3-21l-80.334-60.25c-5.333-4-12.667-4-18 0l-80.333 60.25c-6.627 4.971-7.971 14.373-3 21 4.051 5.401 11.045 7.29 17.083 5.113v48.319c-36.355 6.992-66.629 18.31-90.5 29.942v-24.031c17.529-6.198 30.125-22.927 30.125-42.552v-60.25c0-24.882-20.243-45.125-45.125-45.125s-45.125 20.244-45.125 45.126v60.25c0 19.624 12.596 36.354 30.125 42.552v40.597c-4.2 2.614-8.159 5.212-11.891 7.769-11.04-.716-22.164-1.084-33.359-1.084-8.284 0-15 6.716-15 15v241c0 8.284 6.716 15 15 15h482c8.284 0 15-6.716 15-15v-241c0-8.285-6.716-15.001-15-15.001zm-15 241h-67.797c-12.779-32.393-31.113-62.987-54.634-91.064-21.237-25.351-46.274-48.144-74.587-67.971 57.821-30.888 125.612-49.436 197.018-51.725zm-100.305 0h-152.135c-14.689-41.356-41.819-78.316-77.281-104.958-35.77-26.873-77.776-42.344-122.279-45.182v-60.619c157.654 5.052 297.687 89.359 351.695 210.759zm-251.391 0h-100.304v-120.052c73.913 5.651 139.172 52.649 167.428 120.053h-67.124zm291.321-391.083c0-8.34 6.785-15.125 15.125-15.125s15.125 6.785 15.125 15.125v60.25c0 8.34-6.785 15.125-15.125 15.125s-15.125-6.785-15.125-15.125zm-210.875 26.896 45.25-33.938 45.25 33.937v65.445c-9.723-1.089-19.808-1.852-30.25-2.23v-22.528c0-8.284-6.716-15-15-15s-15 6.716-15 15v22.528c-10.442.377-20.527 1.14-30.25 2.23zm-150.625-26.896c0-8.34 6.785-15.125 15.125-15.125s15.125 6.785 15.125 15.125v60.25c0 8.34-6.785 15.125-15.125 15.125s-15.125-6.785-15.125-15.125zm195.875 119.833c69.693 0 123.053 18.677 158.583 36.951-56.817 9.377-110.513 28.504-158.583 56.68-48.07-28.177-101.766-47.303-158.583-56.68 35.53-18.274 88.89-36.951 158.583-36.951z"/></svg>