<svg id="Layer_1" enable-background="new 0 0 512.032 512.032" height="512" viewBox="0 0 512.032 512.032" width="512" xmlns="http://www.w3.org/2000/svg"><path d="m511.965 512.032v-260.735l-15.164.166c-88.927.972-166.371 16.433-234.261 46.941-69.126-43.655-154.037-70.893-246.177-78.888l-16.297-1.414v293.932h511.899zm-30-171.655c-65.857 2.266-127.825 14.813-184.398 37.369-10.009 3.991-19.89 8.318-29.641 12.965-17.401-11.203-35.935-21.416-55.362-30.577 74.269-49.331 162.787-75.068 269.401-78.358zm-251.317-26.149c-17.498 9.534-34.327 20.164-50.515 31.915-46.86-18.403-97.82-30.944-150.066-36.691v-58.417c74.164 8.434 142.72 30.063 200.581 63.193zm-200.581 167.804v-142.407c75.176 8.701 147.229 32.165 206.83 67.219-36.193 20.447-70.334 45.594-102.033 75.188zm451.898 0h-301.63c39.538-32.535 82.566-58.168 128.343-76.42 53.055-21.153 111.279-32.981 173.287-35.223z"/><path d="m256.028 158c43.561 0 79-35.439 79-79s-35.439-79-79-79-79 35.439-79 79 35.44 79 79 79zm0-128c27.019 0 49 21.981 49 49s-21.981 49-49 49-49-21.981-49-49 21.982-49 49-49z"/></svg>