<?xml version="1.0" encoding="iso-8859-1"?>
<!-- Generator: Adobe Illustrator 19.0.0, SVG Export Plug-In . SVG Version: 6.00 Build 0)  -->
<svg version="1.1" id="Capa_1" xmlns="http://www.w3.org/2000/svg" xmlns:xlink="http://www.w3.org/1999/xlink" x="0px" y="0px"
	 viewBox="0 0 512 512" style="enable-background:new 0 0 512 512;" xml:space="preserve">
<g>
	<g>
		<rect x="301" y="270" width="30" height="30"/>
	</g>
</g>
<g>
	<g>
		<rect x="181" y="270" width="30" height="30"/>
	</g>
</g>
<g>
	<g>
		<path d="M512,225c0-30.734-28.607-58.326-80.554-77.694c-4.749-1.771-9.658-3.458-14.701-5.067l-14.311-71.551
			C394.243,29.729,357.98,0,316.21,0C293.639,0,272.365,8.447,256,23.846C239.635,8.447,218.362,0,195.791,0
			c-41.77,0-78.033,29.728-86.225,70.688l-14.31,71.551c-5.043,1.609-9.952,3.296-14.701,5.067C28.608,166.674,0,194.266,0,225
			c0,14.215,6.233,34.443,33.852,54.113C31.328,285.718,30,292.762,30,300c0,33.424,28.112,60,61,60h0.675
			C99.127,443.835,169.394,512,256,512c86.567,0,156.869-68.121,164.325-152H421c33.084,0,60-26.916,60-60
			c0-7.349-1.335-14.392-3.764-20.905C505.604,259.097,512,239.01,512,225z M138.982,76.571C144.38,49.586,168.271,30,195.791,30
			c15.474,0,30.022,6.026,40.964,16.968L256,66.213l19.245-19.245C286.188,36.026,300.735,30,316.21,30
			c27.52,0,51.41,19.586,56.807,46.571l11.38,56.898C345.91,124.693,301.83,120,256,120c-45.83,0-89.911,4.693-128.397,13.469
			L138.982,76.571z M91,330c-16.804,0-31-13.738-31-30c0-16.262,14.196-30,31-30V330z M256,482
			c-40.091,0-76.149-17.833-100.896-46.086C167.898,391.575,209.343,360,256,360c46.657,0,88.103,31.575,100.896,75.914
			C332.149,464.167,296.091,482,256,482z M391,345c0,21.675-4.994,42.187-13.863,60.424c-8.592-17.411-20.914-32.964-36.154-45.323
			C317.05,340.69,286.869,330,256,330c-30.869,0-61.05,10.69-84.983,30.101c-15.239,12.359-27.562,27.913-36.153,45.324
			C125.994,387.187,121,366.676,121,345c0-18.2,0-104.009,0-116.385C143.911,221.221,189.627,210,256,210
			c66.372,0,112.089,11.221,135,18.615C391,240.981,391,326.81,391,345z M421,330v-60c16.542,0,30,13.458,30,30S437.542,330,421,330
			z M460.067,254.519C449.561,245.481,435.913,240,421,240v-32.445l-9.732-3.65C387.467,194.977,335.646,180,256,180
			c-79.647,0-131.467,14.977-155.268,23.904L91,207.555V240c-14.65,0-28.607,5.197-39.744,14.688C37.468,244.885,30,234.55,30,225
			c0-16.799,22.817-35.335,61.035-49.585C134.991,159.026,193.577,150,256,150c62.424,0,121.009,9.026,164.966,25.415
			C459.184,189.665,482,208.201,482,225C482,234.24,474.295,244.518,460.067,254.519z"/>
	</g>
</g>
<g>
	<g>
		<rect x="211" y="390" width="90" height="30"/>
	</g>
</g>
<g>
</g>
<g>
</g>
<g>
</g>
<g>
</g>
<g>
</g>
<g>
</g>
<g>
</g>
<g>
</g>
<g>
</g>
<g>
</g>
<g>
</g>
<g>
</g>
<g>
</g>
<g>
</g>
<g>
</g>
</svg>
