<svg id="Capa_1" enable-background="new 0 0 512.016 512.016" height="512" viewBox="0 0 512.016 512.016" width="512" xmlns="http://www.w3.org/2000/svg"><path d="m498.827 13.159c-17.545-17.546-46.094-17.546-63.639 0l-123.392 123.393c-.089.089-.193.155-.287.236 6.023-9.854 9.499-21.426 9.499-33.796 0-35.841-29.159-65-65-65s-65 29.159-65 65c0 12.37 3.476 23.942 9.498 33.796-.094-.081-.198-.147-.286-.235l-123.392-123.394c-17.544-17.545-46.094-17.546-63.64 0-17.544 17.545-17.544 46.094 0 63.639l137.82 137.82v251.773c0 24.487 19.625 44.946 43.746 45.606 12.262.337 23.852-4.184 32.633-12.728 8.784-8.546 13.621-20.001 13.621-32.254v-109h30v108.376c0 24.487 19.624 44.946 43.746 45.606.426.012.851.018 1.274.018 11.789 0 22.882-4.498 31.358-12.745 8.784-8.546 13.621-20.001 13.621-32.255v-252.396l137.819-137.82c17.547-17.546 17.547-46.094.001-63.64zm-21.213 42.427-142.213 142.213c-2.813 2.813-4.394 6.628-4.394 10.606v258.61c0 4.084-1.613 7.903-4.542 10.752-2.927 2.848-6.803 4.35-10.89 4.242-8.033-.22-14.568-7.227-14.568-15.618v-123.375c0-8.284-6.716-15-15-15h-60c-8.284 0-15 6.716-15 15v124c0 4.084-1.613 7.903-4.542 10.752-2.926 2.847-6.785 4.353-10.891 4.242-8.032-.22-14.567-7.227-14.567-15.618v-257.986c0-3.979-1.581-7.793-4.394-10.606l-142.212-142.214c-5.849-5.849-5.849-15.365 0-21.213 5.849-5.849 15.365-5.849 21.214 0l123.391 123.392c6.61 6.611 15.4 10.252 24.75 10.252h104.505c9.349 0 18.138-3.641 24.748-10.251l123.392-123.394c5.848-5.848 15.365-5.848 21.213 0 5.849 5.849 5.849 15.365 0 21.214zm-221.606 12.405c19.299 0 35 15.701 35 35s-15.701 35-35 35-35-15.701-35-35 15.701-35 35-35z"/></svg>