<?xml version="1.0" encoding="utf-8"?>
<!-- Generator: Adobe Illustrator 19.0.0, SVG Export Plug-In . SVG Version: 6.00 Build 0)  -->
<svg version="1.1" id="Layer_1" xmlns="http://www.w3.org/2000/svg" xmlns:xlink="http://www.w3.org/1999/xlink" x="0px" y="0px"
	 viewBox="0 0 74.8 53" style="enable-background:new 0 0 74.8 53;" xml:space="preserve">
<style type="text/css">
	.st0{fill:#D85D27;}
	.st1{fill:#F5E98A;}
</style>
<g>
	<path class="st0" d="M74.4,5.9c-0.7-0.6-7-5.4-11.1-5.4c-4,0-7.6,3.5-10.2,9.7c-1.6,3.9-3.6,3.9-5.6,3.9c-0.8,0-3-0.4-5.1-0.8
		c-3-0.6-6.4-1.2-8.4-1.2c-2.1,0-7.7,0.5-12.8,4.6c-4.6,3.7-7.5,9.5-8.2,16.7c-1.2,0.3-3.5,1.1-5.8,2c-4.9,2-7.2,4-7.2,6.1
		c0,3.1,2.4,6.1,6.7,8.5c3.2,1.8,7.4,3,10.1,3c3.6,0,6.1-2.4,6.3-4.6c0.2-1.6-0.6-3.5-3.5-4.2c-2.9-0.7-5-1.6-6.4-2.3
		c1.6-0.3,3.5-0.4,4.5-0.4c0.6,0.4,2.1,1.4,3.5,2.4c0.2,0.1,0.4,0.2,0.7,0.2h10.3c0.5,0,0.9-0.2,1.1-0.7c0.2-0.4,0.2-0.9-0.1-1.2
		l-2-2.7c0.4-0.3,0.7-0.7,1.1-1.2c0.8-1,1.3-2.1,1.5-3.4c2-0.2,8.3-0.8,12.4-2.5c1.4,2.1,3.1,4.3,3.1,4.4c0.9,1.3,2.3,3.1,3.4,4.6
		c1.7,2.2,2.1,2.5,2.7,2.5H62c0.5,0,0.9-0.2,1.1-0.6c0.2-0.4,0.2-0.9-0.1-1.2l-2.1-3.1c-0.6-0.9-1.6-1.3-2.7-1.1l-0.4,0.1
		c-1.1-2.1-2.4-5.2-2.4-6.6c0-0.4,0-0.7,0.1-1c3.4-1.3,8.8-5.4,10.2-11.6c0.6-2.9,1.3-6.4,1.3-6.5c0-0.1,0-0.2,0-0.4
		c2.4-0.3,5.5-1.2,5.6-1.3c0.3-0.1,0.6-0.3,0.7-0.6l1.3-2.6C74.9,6.9,74.8,6.3,74.4,5.9z"/>
	<path class="st1" d="M75.1,6l-0.8,1.7c-1.9,0.6-5.6,1.5-7.7,1.5c-1.8,0-3.1-0.8-3.8-2.6c-0.3-0.6-0.9-1-1.5-1c-0.1,0-0.2,0-0.2,0
		c0,0-2.2,0.3-2.6-1c-0.2-0.7,0.1-1.4,0.6-1.7c0.4-0.3,0.7-0.1,0.9,0c0.7,0.5,1.8,0.4,2.3-0.4s0.4-1.8-0.4-2.3c0,0,0,0-0.1,0
		C62.2,0,62.6,0,63,0c1.5,0,3.5,0.7,5.4,1.8C67.6,2,67,2.8,67,3.8c0,1.2,0.9,2.1,2.1,2.1c1.2,0,2.1-0.9,2.1-2.1c0-0.2,0-0.3-0.1-0.5
		C72.6,4.2,74,5.2,75.1,6z M24.3,41.8h10.8l-2.7-3.7C29.8,39.5,27.1,40.8,24.3,41.8z M61.9,7.8c-1.4,0-3.2-0.6-3.7-2.6c0,0,0,0,0,0
		c-1,1.5-1.8,3.2-2.3,4.5c-2.2,5.6-5.8,5.6-8,5.6c-1.1,0-3.2-0.4-5.6-0.9c-2.9-0.6-6.2-1.2-8.1-1.2c0,0,0,0,0,0
		c-1.9,0-6.9,0.4-11.5,4.2c-4.4,3.6-7,9.1-7.5,16.4c0,0.5-0.4,1-0.9,1.1c0,0-3.3,0.9-6.5,2.3C3.2,39,2,40.5,2,41.1
		c0,5.3,10.3,9.4,14.6,9.4c1.6,0,3.8-0.9,4-2.6c0.1-1-1-1.5-1.7-1.6c-6.4-1.5-9.6-4.1-9.7-4.2c-0.3-0.3-0.5-0.7-0.5-1.1
		c0-0.4,0.3-0.8,0.6-1c2.6-1.4,7.9-1.5,8.5-1.5c0.4,0,0.4,0,2.4,1.3c0.1,0,0.1,0,0.2,0c6.8,0,9.5-3.1,9.9-3.7c1.4-1.9,1.7-4.6,0.7-8
		c-0.2-0.7,0.2-1.3,0.9-1.5c0.7-0.2,1.3,0.2,1.5,0.9c0.4,1.5,0.6,2.9,0.7,4.1c2.2-0.2,7.4-0.8,10.9-2.1c-0.4-0.6-0.6-1-0.7-1.2
		c-0.7-1.7,1-3.5,1.6-4.1c0.5-0.5,1.3-0.4,1.7,0.1c0.5,0.5,0.4,1.3-0.1,1.8c-0.4,0.4-0.9,1-1,1.3c0.9,1.6,8.2,11.8,9.8,13.6h3.8
		l-0.8-1.3c0,0-0.1-0.1-0.1-0.1L58,40c-0.5,0.1-1.1-0.1-1.3-0.6c-0.3-0.6-3.3-6-3.2-9c0.1-1.9,0.5-2.9,0.8-3.9
		c0.2-0.5,0.4-1,0.5-1.7c0.1-0.7,0.8-1.1,1.5-0.9c0.7,0.1,1.1,0.8,0.9,1.5c-0.1,0.3-0.1,0.5-0.2,0.7c2.5-1.5,6-4.6,7-9.3
		c0.6-2.8,1.3-6.3,1.3-6.6C63.9,10,62.7,9.2,61.9,7.8z"/>
</g>
</svg>
