<svg id="Capa_1" enable-background="new 0 0 511.948 511.948" height="512" viewBox="0 0 511.948 511.948" width="512" xmlns="http://www.w3.org/2000/svg"><path d="m136.98 260.759c12.05 0 23.174-7.035 28.342-17.924 1.776-3.742.182-8.215-3.561-9.991s-8.215-.182-9.991 3.56c-2.697 5.683-8.502 9.355-14.79 9.355s-12.094-3.672-14.791-9.355c-1.776-3.742-6.249-5.336-9.991-3.56s-5.336 6.25-3.56 9.991c5.168 10.889 16.293 17.924 28.342 17.924z"/><path d="m97.528 200.823c0-7.893-4.318-14.313-9.625-14.313s-9.625 6.421-9.625 14.313 4.318 14.314 9.625 14.314 9.625-6.422 9.625-14.314z"/><path d="m195.684 200.823c0-7.893-4.318-14.313-9.625-14.313s-9.626 6.421-9.626 14.313 4.318 14.314 9.626 14.314 9.625-6.422 9.625-14.314z"/><path d="m370.328 232.844c-3.741-1.776-8.215-.182-9.991 3.56-2.697 5.683-8.502 9.355-14.79 9.355s-12.094-3.672-14.791-9.355c-1.776-3.742-6.249-5.336-9.991-3.56s-5.336 6.25-3.56 9.991c5.167 10.888 16.292 17.923 28.342 17.923s23.174-7.035 28.342-17.924c1.776-3.741.182-8.214-3.561-9.99z"/><path d="m296.47 186.509c-5.308 0-9.625 6.421-9.625 14.313s4.318 14.314 9.625 14.314 9.625-6.421 9.625-14.314-4.318-14.313-9.625-14.313z"/><path d="m394.625 186.509c-5.308 0-9.626 6.421-9.626 14.313s4.318 14.314 9.626 14.314 9.625-6.421 9.625-14.314-4.317-14.313-9.625-14.313z"/><path d="m511.511 324.018c-1.09-3.052-2.103-7.801-3.276-13.3-2.719-12.743-6.103-28.602-13.989-42.026-8.51-14.486-20.505-22.827-35.709-24.912.07-1.722.135-3.444.193-5.167 13.403-3.23 23.393-15.314 23.393-29.694 0-14.547-10.218-26.744-23.849-29.808-.111-2.243-.23-4.484-.362-6.721 2.336-8.499 13.313-54.823-14.023-89.357-2.571-3.248-7.288-3.796-10.535-1.226-3.248 2.571-3.797 7.288-1.226 10.536 19.375 24.477 15.192 57.813 12.468 71.115-18.038-1.985-71.046-10.771-92.615-46.534-1.357-2.251-3.793-3.626-6.422-3.627-2.628 0-5.064 1.375-6.422 3.626-21.529 35.686-74.612 44.524-92.644 46.529-2.692-12.992-6.787-45.077 11.231-69.469 15.874-21.489 45.426-32.385 87.834-32.385 27.308 0 49.493 4.58 65.939 13.614 3.631 1.994 8.19.667 10.185-2.963s.667-8.19-2.963-10.184c-18.685-10.263-43.299-15.466-73.161-15.466-40.313 0-70.635 9.356-90.409 27.837-3.889-7.061-8.796-12.936-14.505-17.29-48.987-37.339-156.12-2.5-178.095 5.236-12.361-8.13-35.553-15.567-54.217 3.097-17.157 17.157-4.614 51.236 8.928 76.802 2.336 4.413 5.265 8.421 8.654 11.958-.692 8.268-1.242 16.562-1.649 24.871-13.636 3.061-23.859 15.26-23.859 29.81 0 14.376 9.984 26.457 23.381 29.691.141 4.178.318 8.35.531 12.515.309 5.984 1.413 11.881 3.279 17.527 1.042 3.151 3.973 5.148 7.12 5.148.78 0 1.574-.123 2.355-.381 3.933-1.3 6.067-5.542 4.767-9.475-1.446-4.374-2.301-8.947-2.541-13.59-1.456-28.376-1.173-57.089.827-85.536 3.627 1.858 7.475 3.322 11.496 4.311 22.635 5.581 34.305-.717 40.304-8.204 11.117 7.326 33.618 20.099 55.409 20.096 9.002-.001 17.888-2.182 25.792-7.829 4.924-3.516 8.464-7.72 10.562-12.481 3.762 3.033 8.284 6.392 13.217 9.467 12.863 8.018 23.059 10.669 31.033 10.471-11.116 4.574-18.965 15.52-18.965 28.269 0 14.379 9.989 26.462 23.391 29.694.141 4.177.306 8.35.52 12.511.123 2.415.386 4.789.755 7.127-4.768 23.054-24.34 39.818-48.035 40.936-32.263 1.521-64.98 1.522-97.238 0-11.993-.573-23.46-5.315-32.288-13.354-3.063-2.789-7.806-2.567-10.595.496s-2.567 7.806.496 10.595c4.26 3.88 8.996 7.164 14.063 9.795-1.049.354-2.103.724-3.158 1.11-17.137 6.262-37.565 18.027-37.565 38.52v43.39c-.361 3.124-1.713 17.663 2.14 33.854 5.855 24.599 20.771 41.124 43.139 47.802.053.017.825.217 1.141.267.066.01.84.1 1.171.1h140.139c.739 0 2.272-.354 2.323-.371 13.51-4.036 24.194-11.517 31.903-22.31 7.714 10.741 18.467 18.312 31.915 22.322.035.011.161.047.163.048.673.198 1.383.309 2.12.309h140.147c.737 0 1.448-.111 2.12-.309.002 0 .128-.037.163-.048 22.382-6.674 37.307-23.201 43.164-47.81 3.869-16.258 2.49-30.851 2.136-33.892v-43.349c0-20.495-20.428-32.261-37.565-38.522-1.032-.377-2.063-.739-3.09-1.086 5.831-3.028 11.147-6.887 15.793-11.431 20.435 30.572 62.849 38.276 64.824 38.619.428.074.857.111 1.283.111 2.19 0 4.298-.961 5.737-2.67 1.718-2.043 2.223-4.843 1.326-7.355zm-44.389-115.099c0 5.846-3.246 10.944-8.027 13.599.103-9.12.025-18.236-.217-27.325 4.9 2.621 8.244 7.788 8.244 13.726zm-451.716 0c0-5.943 3.35-11.113 8.258-13.732-.242 9.115-.318 18.233-.216 27.34-4.79-2.653-8.042-7.756-8.042-13.608zm168.076-68.412c-2.286-2.31-5.8-2.885-8.703-1.424s-4.535 4.625-4.042 7.838c.914 5.95-1.038 10.287-6.33 14.065-12.506 8.935-30.418 4.277-43.242-1.204-15.073-6.443-26.958-15.575-27.072-15.663-1.893-1.469-4.374-1.946-6.678-1.281-2.303.665-4.149 2.39-4.968 4.643-1.139 3.132-4.604 12.665-27.24 7.084-10.575-2.602-19.574-9.638-24.693-19.304-15.341-28.961-19.669-51.083-11.577-59.175 16.214-16.214 36.87-.141 37.721.534 2.065 1.667 4.858 2.118 7.344 1.185.303-.114 30.746-11.455 66.982-18.025 46.703-8.468 81.477-5.253 100.564 9.295 5.293 4.036 9.712 10.097 12.916 17.66-19.618 28.072-16.089 62.467-12.978 78.295-14.622 4.551-39.651-16.105-48.004-24.523zm40.49 68.412c0-5.936 3.342-11.102 8.24-13.724-.242 9.099-.32 18.214-.217 27.32-4.778-2.656-8.023-7.752-8.023-13.596zm17.29 71.397c6.306 11.268 15.794 20.464 27.28 26.427-1.026.347-2.056.708-3.087 1.085-8.161 2.982-17.065 7.216-24.157 13.043-6.675-5.509-15.802-10.238-27.293-14.122 11.443-5.934 20.934-15.1 27.257-26.433zm66.906 34.345c12.425.442 24.899.665 37.375.665s24.952-.223 37.379-.665v11.363c0 11.17-9.087 20.258-20.258 20.258h-34.239c-11.17 0-20.258-9.088-20.258-20.258v-11.363zm-133.812.002v11.362c0 11.17-9.087 20.258-20.258 20.258h-34.239c-11.17 0-20.258-9.088-20.258-20.258v-11.362c12.427.442 24.904.666 37.381.666 12.475-.001 24.95-.224 37.374-.666zm-138.209 105.855c-2.164-8.871-2.454-17.32-2.316-22.857h25.578v55.441c-11.712-6.364-19.527-17.273-23.262-32.584zm163.402-30.358v66.601h-125.14v-66.601c0-4.142-3.358-7.5-7.5-7.5h-32.59v-36.312c0-17.094 31.513-26.909 50.283-30.643v10.319c0 19.441 15.816 35.258 35.258 35.258h34.239c19.441 0 35.258-15.817 35.258-35.258v-10.321c12.498 2.48 31.394 7.782 42.176 16.543-2.29 4.164-3.642 8.845-3.642 14.105v36.309h-20.841c-4.143 0-7.501 3.358-7.501 7.5zm15 62.957v-55.457h12.837c-.139 6.444.245 15.869 2.64 25.931.836 3.512 1.863 6.854 3.064 10.032-4.312 8.601-10.517 15.128-18.541 19.494zm30.165-32.599c-2.164-8.871-2.454-17.32-2.316-22.857h4.742c.007 0 .013-.001.019-.001h20.814v55.44c-11.711-6.363-19.525-17.272-23.259-32.582zm201.665 0c-3.735 15.31-11.548 26.219-23.259 32.582v-55.44h25.575c.138 5.536-.152 13.985-2.316 22.858zm1.824-74.167v36.308h-32.583c-4.142 0-7.5 3.358-7.5 7.5v66.599h-125.147v-66.599c0-4.142-3.358-7.5-7.5-7.5h-32.583v-36.308c0-17.098 31.511-26.911 50.278-30.644v10.317c0 19.441 15.816 35.258 35.258 35.258h34.239c19.441 0 35.258-15.817 35.258-35.258v-10.317c18.77 3.733 50.28 13.547 50.28 30.644zm-54.03-47.165c-32.269 1.522-64.989 1.522-97.25 0-26.61-1.254-47.701-22.245-49.059-48.83-1.229-23.865-1.214-48.027.009-71.929 18.543-1.944 69.953-10.32 97.684-44.605 27.715 34.275 79.1 42.656 97.658 44.604 1.225 23.814 1.242 47.977.017 71.931-1.367 26.583-22.458 47.575-49.059 48.829zm54.165-16.346c4.46-7.2 7.574-15.332 9.027-24.06 23.255 3.829 30.462 28.177 36.2 55.068.161.755.319 1.496.476 2.224-13.594-4.385-35.463-14.114-45.703-33.232z"/></svg>