<svg height="512" viewBox="0 0 96 96" width="512" xmlns="http://www.w3.org/2000/svg"><path d="m56.43 62.4727c-2.74-1.0391-5.7813-.3438-8.43 1.8671-2.65-2.2109-5.6953-2.9062-8.43-1.8671-3.4352 1.3046-5.57 4.9687-5.57 9.5625 0 8.1445 6.832 14.93 13.1777 17.789a2.011 2.011 0 0 0 1.6446 0c6.3457-2.8594 13.1777-9.6442 13.1777-17.789 0-4.5938-2.1348-8.2579-5.57-9.5625zm-8.43 23.3086c-5.0957-2.6013-10-7.9727-10-13.7461 0-2.8477 1.1738-5.1329 2.9922-5.8243a3.2732 3.2732 0 0 1 1.1621-.2109 6.1839 6.1839 0 0 1 4.35 2.4492 2.0716 2.0716 0 0 0 2.9922 0c1.8281-2.0625 3.83-2.875 5.5117-2.2383 1.818.6914 2.9918 2.9766 2.9918 5.8243 0 5.7734-4.9043 11.1448-10 13.7461z"/><path d="m64.0767 47.7686a24 24 0 1 0 -32.1534 0 30.12 30.12 0 0 0 -19.9233 28.2314 6.0066 6.0066 0 0 0 6 6h8a2 2 0 0 0 0-4h-8a2.0026 2.0026 0 0 1 -2-2 26.0609 26.0609 0 0 1 20.001-25.2463 23.7985 23.7985 0 0 0 23.998 0 26.0609 26.0609 0 0 1 20.001 25.2463 2.0026 2.0026 0 0 1 -2 2h-8a2 2 0 0 0 0 4h8a6.0066 6.0066 0 0 0 6-6 30.12 30.12 0 0 0 -19.9233-28.2314zm-36.0767-17.7686a20 20 0 1 1 20 20 20.0236 20.0236 0 0 1 -20-20z"/></svg>